<svg width="138" height="83" viewBox="0 0 138 83" fill="none" xmlns="http://www.w3.org/2000/svg">
<path d="M2.42969 47.5793V51.9762C2.42969 53.1396 3.2129 52.997 3.45301 52.997H133.741V57.394H134.764V53.0084C134.764 53.0084 134.941 51.9762 133.724 51.9762H3.45873V47.5793H2.42969Z" fill="black"/>
<path d="M125.754 63.5816L122.026 69.889L118.27 63.5816H114.286L120.197 73.3393V79.5954H123.73V73.4305L129.693 63.5816H125.754ZM108.889 77.0062C105.716 77.0062 104.527 74.3145 104.521 71.6455C104.521 68.8397 105.705 66.1536 108.883 66.1479C112.056 66.1479 113.245 68.8397 113.251 71.6341C113.251 74.3145 112.056 77.0005 108.889 77.0062ZM108.877 63.1881C103.909 63.1881 100.982 66.8836 100.988 71.6398C100.988 73.5104 101.48 75.2212 102.372 76.6013H96.3917V63.5759H92.8644V79.5897H103.109V77.5594C104.458 79.0422 106.425 79.9546 108.889 79.9546C113.857 79.9546 116.778 76.2535 116.772 71.6341C116.772 66.8836 113.845 63.1824 108.877 63.1881ZM86.2042 76.8523H82.4254V72.4553H86.2671C87.7707 72.4553 88.8111 73.1055 88.8054 74.7422C88.8054 76.4074 87.5934 76.8523 86.2042 76.8523ZM82.4254 66.3076H85.7297C86.9875 66.3076 88.1594 66.6213 88.1594 68.1496C88.1594 69.5012 87.2333 70.0601 86.0042 70.0601H82.4254V66.3076ZM69.3737 73.4077L71.4661 67.528H71.5118L73.5356 73.4077H69.3737ZM89.3943 70.887C90.7892 70.2141 91.5781 69.1134 91.5781 67.5394C91.5781 64.5625 89.5086 63.5702 86.4444 63.5816H78.8923V78.4034L73.3355 63.5759H69.711L63.6225 79.5954H67.2013L68.4533 76.031H74.4617L75.6737 79.5954H79.344H86.6845C89.5829 79.5954 92.3442 78.1981 92.3499 74.9418C92.3499 72.9458 91.3609 71.4459 89.4057 70.887M50.9596 73.3906L53.052 67.5166H53.092L55.1215 73.3906H50.9539H50.9596ZM40.4634 77.2344C38.5768 77.2344 36.9132 76.4017 36.9075 74.2803H34.5693C34.2206 71.1266 30.9448 70.4479 29.8357 70.1742C25.8167 69.1419 25.0507 68.9823 25.0507 67.7561C25.0507 66.4103 26.3541 65.9369 27.4803 65.9369C29.1668 65.9369 30.5389 66.4274 30.6532 68.3549H34.0548C34.2206 71.1094 36.5302 71.9934 38.8284 72.5922C41.1952 73.2195 43.602 73.5104 43.602 75.2383C43.602 76.8751 41.7154 77.2344 40.4691 77.2344M13.171 73.402L15.2634 67.528H15.3091L17.3329 73.402H13.171ZM51.2912 63.5759L47.0092 74.8277C47.0035 71.1893 43.4133 70.4536 42.2414 70.1628C38.2167 69.1248 37.4506 68.9823 37.4506 67.739C37.4506 66.3931 38.7541 65.9198 39.8803 65.9255C41.5668 65.9255 42.9388 66.416 43.0532 68.3435H46.4719C46.4719 64.6424 43.3847 63.1881 40.0404 63.1881C37.1705 63.1881 34.1177 64.7222 34.0433 67.9101C33.8032 64.534 30.8476 63.1938 27.6233 63.1995C24.7305 63.1995 21.6263 64.7735 21.632 68.047C21.632 71.0581 24.0388 71.9706 26.4227 72.5979C28.7895 73.2309 31.1906 73.5161 31.1849 75.244C31.1849 76.8808 29.2983 77.2401 28.0692 77.2401C26.1769 77.2401 24.5133 76.4074 24.5133 74.2803H21.1346L17.1156 63.5816H13.4968L7.41406 79.5954H10.9871L12.2448 76.031H18.2533L19.4653 79.5954H23.1241L22.5581 78.1012C23.8558 79.3786 25.8453 79.9775 27.9205 79.9775C31.1334 79.9775 33.2373 78.7798 34.1177 76.972C35.2439 79.0251 37.7193 79.9718 40.3262 79.966C42.8473 79.966 44.6768 79.2304 45.7801 78.0385L45.197 79.5897H48.77L50.0278 76.0139H56.0362L57.2482 79.5954H60.9184L54.91 63.5759H51.2912Z" fill="black"/>
<path d="M7.89463 4.24298H26.8976V13.4703H17.2875V41.1407H7.82031L7.89463 4.24298Z" fill="#00539B"/>
<path d="M18.6094 14.7876H25.7955V26.3531H18.6094" fill="#00539B"/>
<path d="M33.084 26.7637V4.24298H45.0323V7.55066H37.2973V13.2536H44.5521V16.5555H37.2973V26.7637H33.084Z" fill="black"/>
<path d="M52.0801 4.24298H48.1641V26.7637H52.0801V4.24298Z" fill="black"/>
<path d="M63.6971 16.105V14.6337C63.6685 12.9228 63.2169 12.381 61.6504 12.381C59.6953 12.381 59.781 13.8866 59.781 15.415V16.105H63.6971ZM55.8707 15.6545C55.6877 11.6624 57.7344 9.38129 61.5876 9.38129C67.0357 9.38129 67.6074 12.2042 67.6074 16.8293V19.1104H59.781V21.5741C59.8153 23.7982 60.6557 24.2202 61.8277 24.2202C63.274 24.2202 63.6971 23.1709 63.6342 21.038H67.5503C67.6989 24.819 66.1382 27.22 62.1307 27.22C57.6143 27.22 55.7792 25.0871 55.8707 20.1027V15.6545Z" fill="black"/>
<path d="M75.252 11.5712H75.3149C76.1896 9.70632 77.7846 9.43828 79.048 9.38126C80.4944 9.34704 82.421 9.98006 82.6897 11.5712C83.4729 10.0998 84.7077 9.38126 86.6343 9.38126C89.5214 9.38126 90.7905 11.1834 90.7905 12.9855V26.7694H86.8744V15.3294C86.8744 13.7953 86.7258 12.2954 85.005 12.3867C83.3185 12.4779 83.0213 13.647 83.0213 15.6259V26.7637H79.1052V15.1127C79.1052 13.6128 78.9851 12.3525 77.1786 12.381C75.3435 12.4095 75.252 13.7611 75.252 15.6202V26.758H71.3359V9.82038H75.252V11.5598V11.5712Z" fill="black"/>
<path d="M95.0039 9.82612H98.92V26.7637H95.0039V9.82612ZM95.0039 4.24298H98.92V7.79018H95.0039V4.24298Z" fill="black"/>
<path d="M106.889 11.5712H106.952C107.826 9.62081 109.57 9.38129 110.473 9.38129C112.703 9.38129 114.504 10.6701 114.389 13.7041V26.7637H110.473V15.472C110.473 13.8181 110.29 12.7403 108.815 12.6776C107.34 12.6148 106.826 14.0006 106.889 15.8028V26.7637H102.973V9.82611H106.889V11.5655V11.5712Z" fill="black"/>
<path d="M123.473 12.381C121.638 12.381 121.815 13.9721 121.701 15.6545V21.3003C121.793 22.92 122.21 24.2145 123.416 24.2145C124.68 24.2145 125.314 23.1652 125.314 21.2091V16.1335C125.377 14.7819 125.314 12.381 123.479 12.381M121.878 28.6571C121.878 29.0164 122.061 29.2616 122.33 29.4099C122.627 29.5924 123.05 29.6494 123.536 29.6494C125.194 29.6494 125.491 28.3263 125.491 27.0032V25.0528L125.428 24.9901C124.645 26.6097 123.53 27.123 121.844 27.2142C118.534 27.2142 117.871 24.243 117.779 21.5399V15.4149C117.871 10.7614 119.317 9.43831 121.844 9.38128C123.616 9.35277 124.702 10.0428 125.246 11.5712H125.308V9.83181H129.225V26.2562C129.225 29.7064 128.258 32.4723 122.902 32.4723C120.312 32.4723 118.179 31.5085 117.968 28.6571H121.878Z" fill="black"/>
<path d="M34.359 40.5134H36.3314C37.1432 40.5134 39.3327 40.291 39.3327 37.0061C39.3327 34.8846 38.5438 33.6015 36.3542 33.6015H34.3533V40.5134H34.359ZM33.1699 32.6035H36.2342C38.9897 32.6035 40.5276 33.9779 40.5276 36.8464C40.5276 39.715 39.2127 41.5114 36.2342 41.5114H33.1699V32.6035Z" fill="#6D6E71"/>
<path d="M44.6542 40.7244C45.769 40.7244 46.6665 39.8519 46.6665 38.2893C46.6665 36.7267 45.769 35.8427 44.6542 35.8427C43.5394 35.8427 42.6418 36.7153 42.6418 38.2893C42.6418 39.8633 43.5394 40.7244 44.6542 40.7244ZM44.6542 34.9131C46.7066 34.9131 47.7928 36.3959 47.7928 38.295C47.7928 40.194 46.7008 41.6654 44.6542 41.6654C42.6075 41.6654 41.5156 40.1826 41.5156 38.295C41.5156 36.4016 42.6018 34.9131 44.6542 34.9131Z" fill="#6D6E71"/>
<path d="M51.8983 40.7244C53.0131 40.7244 53.9107 39.8519 53.9107 38.2893C53.9107 36.7267 53.0131 35.8427 51.8983 35.8427C50.7835 35.8427 49.886 36.7153 49.886 38.2893C49.886 39.8633 50.7835 40.7244 51.8983 40.7244ZM51.8983 34.9131C53.9507 34.9131 55.0369 36.3959 55.0369 38.295C55.0369 40.194 53.945 41.6654 51.8983 41.6654C49.8517 41.6654 48.7598 40.1826 48.7598 38.295C48.7598 36.4016 49.846 34.9131 51.8983 34.9131Z" fill="#6D6E71"/>
<path d="M56.3105 35.0614H57.311V36.4244H57.3339C57.8484 35.3865 58.5573 34.8733 59.7121 34.9132V36.0366C57.997 36.0366 57.3739 37.0118 57.3739 38.6429V41.5114H56.3105V35.0614Z" fill="#6D6E71"/>
<path d="M65.4821 36.8692H67.8089C69.1466 36.8806 69.7583 36.2932 69.7583 35.2325C69.7583 34.1718 69.1466 33.5958 67.8089 33.5958H65.4821V36.8635V36.8692ZM64.293 32.6035H68.209C69.9813 32.6035 70.9474 33.5901 70.9474 35.2382C70.9474 36.8863 69.9813 37.8843 68.209 37.8729H65.4821V41.5171H64.293V32.6092V32.6035Z" fill="#6D6E71"/>
<path d="M72.2499 35.0614H73.2503V36.4244H73.2732C73.7877 35.3865 74.4966 34.8733 75.6457 34.9132V36.0366C73.9306 36.0366 73.3075 37.0118 73.3075 38.6429V41.5114H72.2441V35.0614H72.2499Z" fill="#6D6E71"/>
<path d="M79.0819 40.7244C80.1967 40.7244 81.0943 39.8519 81.0943 38.2893C81.0943 36.7267 80.1967 35.8427 79.0819 35.8427C77.9671 35.8427 77.0696 36.7153 77.0696 38.2893C77.0696 39.8633 77.9671 40.7244 79.0819 40.7244ZM79.0819 34.9131C81.1343 34.9131 82.2205 36.3959 82.2205 38.295C82.2205 40.194 81.1286 41.6654 79.0819 41.6654C77.0353 41.6654 75.9434 40.1826 75.9434 38.295C75.9434 36.4073 77.0296 34.9131 79.0819 34.9131Z" fill="#6D6E71"/>
<path d="M86.307 40.7244C87.7362 40.7244 88.285 39.504 88.285 38.2893C88.285 37.0175 87.7076 35.8427 86.2441 35.8427C84.7806 35.8427 84.3061 37.0803 84.3061 38.3406C84.3061 39.6009 84.9292 40.7244 86.307 40.7244ZM89.3141 41.5114H88.2507V40.6389H88.2278C87.8791 41.3517 87.0502 41.6597 86.1641 41.6597C84.1746 41.6597 83.1855 40.0914 83.1855 38.2665C83.1855 36.4415 84.1631 34.9075 86.1412 34.9075C86.8043 34.9075 87.7533 35.1584 88.2278 35.9169H88.2507V32.5978H89.3141V41.5114Z" fill="#6D6E71"/>
<path d="M96.3705 41.5114H95.3701V40.4906H95.3472C94.8956 41.289 94.1695 41.6654 93.2491 41.6654C91.5512 41.6654 91.0195 40.6902 91.0195 39.3044V35.0614H92.0829V39.4298C92.0829 40.2168 92.5802 40.7244 93.3978 40.7244C94.6898 40.7244 95.3129 39.8632 95.3129 38.6999V35.0614H96.3763V41.5114H96.3705Z" fill="#6D6E71"/>
<path d="M102.423 37.1316C102.263 36.3218 101.697 35.8427 100.822 35.8427C99.2843 35.8427 98.8098 37.0517 98.8098 38.3634C98.8098 39.5496 99.3472 40.7244 100.696 40.7244C101.725 40.7244 102.337 40.1256 102.474 39.1561H103.566C103.332 40.7244 102.343 41.6654 100.714 41.6654C98.7355 41.6654 97.6836 40.291 97.6836 38.3691C97.6836 36.4472 98.6841 34.9131 100.736 34.9131C102.2 34.9131 103.378 35.6032 103.526 37.1316H102.423Z" fill="#6D6E71"/>
<path d="M106.288 35.0615H107.58V35.9967H106.288V40.0002C106.288 40.4906 106.425 40.5762 107.088 40.5762H107.58V41.5114H106.768C105.671 41.5114 105.23 41.289 105.23 40.1028V35.9967H104.133V35.0615H105.23V33.1282H106.294V35.0615H106.288Z" fill="#6D6E71"/>
<path d="M109.468 39.4812C109.508 40.4279 110.331 40.7301 111.206 40.7301C111.869 40.7301 112.772 40.5818 112.772 39.7663C112.772 38.9508 111.72 38.8025 110.657 38.5687C109.605 38.3349 108.542 37.9813 108.542 36.7495C108.542 35.4549 109.834 34.9131 110.954 34.9131C112.378 34.9131 113.521 35.3637 113.607 36.932H112.543C112.469 36.1108 111.743 35.8427 111.046 35.8427C110.405 35.8427 109.668 36.0195 109.668 36.6639C109.668 37.4224 110.794 37.5536 111.783 37.7874C112.846 38.0269 113.898 38.3748 113.898 39.6237C113.898 41.1578 112.458 41.6597 111.143 41.6597C109.691 41.6597 108.461 41.0723 108.404 39.4755H109.468V39.4812Z" fill="#6D6E71"/>
</svg>
