<svg width="130" height="79" viewBox="0 0 130 79" fill="none" xmlns="http://www.w3.org/2000/svg">
<path d="M84.2937 22.7599C83.0765 21.6471 81.4016 19.2425 81.4555 16.0562C81.4824 14.5418 81.5848 13.0871 81.7302 11.7681C82.0264 8.84234 79.5921 6.39428 76.684 6.68197C75.3753 6.8231 73.9212 6.91538 72.4294 6.9588C69.2628 7.02394 66.877 5.32495 65.7784 4.09821C65.5199 3.81052 65.0406 3.81052 64.7821 4.09821C63.678 5.32495 61.2923 7.01308 58.131 6.9588C56.6285 6.93166 55.1852 6.82853 53.8765 6.68197C50.9737 6.38343 48.5449 8.83691 48.8303 11.7681C48.9703 13.0871 49.0619 14.5527 49.105 16.0562C49.1696 19.2479 47.4839 21.6526 46.2668 22.7599C45.9814 23.0204 45.9814 23.5035 46.2668 23.7641C47.4839 24.8768 49.1588 27.2815 49.105 30.4677C49.078 31.9713 48.9757 33.4369 48.8303 34.7559C48.5341 37.6816 50.9683 40.1297 53.8765 39.842C55.1852 39.7117 56.6392 39.6086 58.131 39.5652C61.2977 39.5 63.6834 41.199 64.7821 42.4258C65.0406 42.7134 65.5199 42.7134 65.7784 42.4258C66.8824 41.199 69.2682 39.5109 72.4294 39.5652C73.932 39.5923 75.3753 39.6954 76.684 39.842C79.5867 40.1405 82.0156 37.6871 81.7302 34.7559C81.5901 33.4369 81.4986 31.9713 81.4555 30.4677C81.3909 27.276 83.0765 24.8714 84.2937 23.7641C84.5791 23.5035 84.5791 23.0204 84.2937 22.7599Z" fill="#FFB600"/>
<path d="M74.1145 30.8802V15.6382C74.5399 15.4699 74.8146 15.0248 74.8146 14.5689C74.8146 13.9012 74.2707 13.3801 73.5813 13.3801C72.892 13.3801 72.3642 13.733 72.0357 14.3463L65.2823 27.4551L58.5289 14.3463C58.2058 13.733 57.6457 13.3801 56.9833 13.3801C56.3209 13.3801 55.75 13.9012 55.75 14.5689C55.75 15.0411 56.0354 15.4699 56.4501 15.6382V30.8802C56.0624 31.0376 55.75 31.4664 55.75 31.9387C55.75 32.6063 56.2939 33.1166 56.9833 33.1166C58.0711 33.1166 58.8143 32.2264 58.8143 30.8965L58.7766 19.6441L64.2644 30.4948C64.6899 31.347 65.8962 31.347 66.3271 30.4948L71.8149 19.6441L71.7772 30.8965C71.7772 32.2318 72.515 33.1166 73.6082 33.1166C74.2976 33.1166 74.8415 32.5955 74.8415 31.9387C74.8415 31.4664 74.5292 31.0376 74.1414 30.8802H74.1306H74.1145Z" fill="white"/>
<path d="M32.5182 72.8065V55.6593C32.5182 55.3445 32.3082 55.2522 32.3082 55.2522C31.9312 55.0948 31.7266 54.7311 31.7266 54.3511C31.7266 53.7649 32.2166 53.3578 32.739 53.3578H44.5278C45.0879 53.3578 45.4865 53.83 45.4865 54.3511C45.4865 54.9156 45.0825 55.3445 44.5278 55.3445H34.3224C34.4785 55.5019 34.4785 55.7516 34.4785 55.9307V62.3629H43.1384C43.6985 62.3629 44.1239 62.8352 44.1239 63.3563C44.1239 63.9208 43.6985 64.3496 43.1384 64.3496H34.4785V72.5026C34.4785 72.6871 34.4785 72.9314 34.3224 73.0888H45.1256C45.6588 73.0888 46.0842 73.4959 46.0842 74.055C46.0842 74.6141 45.6588 75.0755 45.1256 75.0755H32.7552C32.2382 75.0755 31.7427 74.6684 31.7427 74.0821C31.7427 73.7184 31.9635 73.3385 32.3244 73.1811C32.3244 73.1811 32.5344 73.0888 32.5344 72.774" fill="black"/>
<path d="M57.9057 74.0875V55.3607H52.3156C51.7555 55.3607 51.3301 54.9319 51.3301 54.3674C51.3301 53.8028 51.7555 53.374 52.3156 53.374H65.3862C65.9463 53.374 66.3986 53.8028 66.3986 54.3674C66.3986 54.9319 65.9301 55.3607 65.3862 55.3607H59.8337V74.0875C59.8337 74.652 59.3652 75.108 58.8482 75.108C58.3312 75.108 57.8896 74.6357 57.8896 74.0875" fill="black"/>
<path d="M82.2582 62.9926C84.4771 62.9926 86.292 61.413 86.292 59.1387C86.292 56.8643 84.504 55.377 82.2582 55.377H75.6826C75.8387 55.5073 75.8388 55.7678 75.8388 55.9524V62.998H82.2582V62.9926ZM90.6596 74.1147C90.6596 74.6792 90.2341 75.108 89.674 75.108C83.7231 75.108 83.4107 64.9793 79.6247 64.9793H75.8657V74.1147C75.8657 74.6792 75.4402 75.108 74.9071 75.108C74.3739 75.108 73.9215 74.6792 73.9215 74.1147V55.6593C73.9215 55.3445 73.7007 55.2522 73.7007 55.2522C73.3237 55.0948 73.1406 54.7148 73.1406 54.3511C73.1406 53.7649 73.6092 53.3578 74.1531 53.3578H82.2582C85.5918 53.3578 88.2738 55.7353 88.2738 59.1224C88.2738 62.2978 85.6295 64.9358 83.0876 64.9358C85.1502 66.9876 86.265 73.1051 89.6471 73.1051C90.2072 73.1051 90.6326 73.5773 90.6326 74.0984" fill="black"/>
<path d="M98.1177 74.1147V55.5399C98.1177 54.362 98.6993 53.3687 99.8411 53.3687C100.374 53.3687 100.854 53.7758 100.854 54.362C100.854 54.742 100.633 55.1056 100.293 55.263C100.293 55.263 100.073 55.3553 100.073 55.6701V74.1256C100.073 74.6467 99.6041 75.1189 99.0871 75.1189C98.527 75.1189 98.1016 74.6467 98.1016 74.1256" fill="black"/>
<path d="M110.748 72.8065V55.6593C110.748 55.3445 110.538 55.2522 110.538 55.2522C110.161 55.0948 109.956 54.7311 109.956 54.3511C109.956 53.7649 110.446 53.3578 110.969 53.3578H122.757C123.317 53.3578 123.716 53.83 123.716 54.3511C123.716 54.9156 123.312 55.3445 122.757 55.3445H112.541C112.697 55.5019 112.697 55.7516 112.697 55.9307V62.3629H121.373C121.933 62.3629 122.359 62.8352 122.359 63.3563C122.359 63.9208 121.933 64.3496 121.373 64.3496H112.697V72.5026C112.697 72.6871 112.697 72.9314 112.541 73.0888H123.328C123.861 73.0888 124.287 73.4959 124.287 74.055C124.287 74.6141 123.861 75.0755 123.328 75.0755H110.958C110.441 75.0755 109.945 74.6684 109.945 74.0821C109.945 73.7184 110.166 73.3385 110.527 73.1811C110.527 73.1811 110.737 73.0888 110.737 72.774" fill="black"/>
<path d="M126.268 74.1147C126.268 73.5501 126.709 73.1213 127.264 73.1213C127.819 73.1213 128.249 73.5664 128.249 74.1147C128.249 74.6629 127.808 75.108 127.264 75.108C126.72 75.108 126.268 74.6629 126.268 74.1147ZM128.126 74.1147C128.126 73.6316 127.749 73.2516 127.269 73.2516C126.79 73.2516 126.413 73.6316 126.413 74.1147C126.413 74.5978 126.79 74.9777 127.269 74.9777C127.749 74.9777 128.126 74.5978 128.126 74.1147ZM126.957 73.5502H127.307C127.517 73.5502 127.646 73.6804 127.646 73.8758C127.646 74.0441 127.555 74.1527 127.399 74.1744L127.646 74.5163V74.5543C127.646 74.5543 127.619 74.6086 127.592 74.6086C127.565 74.6086 127.555 74.6086 127.539 74.5815L127.264 74.1907H127.005V74.5435C127.005 74.5435 126.978 74.6086 126.941 74.6086C126.903 74.6086 126.876 74.5815 126.876 74.5435V73.6153C126.876 73.6153 126.903 73.5393 126.941 73.5393L126.952 73.5502H126.957ZM127.011 74.0984H127.269C127.436 74.0984 127.517 74.0224 127.517 73.8758C127.517 73.7456 127.425 73.6641 127.269 73.6641H127.011V74.093V74.0984Z" fill="black"/>
<path d="M21.8329 73.2136C21.8329 73.2136 21.6229 73.1214 21.6229 72.8065V55.6593C21.6229 55.3445 21.8329 55.2522 21.8329 55.2522C22.2099 55.0948 22.393 54.7148 22.393 54.3511C22.393 53.7649 21.9245 53.3578 21.3805 53.3578C20.6912 53.3578 20.2119 53.7378 19.9695 54.2588C19.9426 54.324 12.0744 69.7722 12.0744 69.7722C12.0744 69.7722 4.20087 54.324 4.17932 54.2588C3.93159 53.7378 3.44151 53.3578 2.76833 53.3578C2.20824 53.3578 1.75586 53.7649 1.75586 54.3511C1.75586 54.7311 1.93897 55.0948 2.31595 55.2522C2.31595 55.2522 2.52598 55.3445 2.52598 55.6593V72.8065C2.52598 73.1214 2.31595 73.2136 2.31595 73.2136C1.93897 73.371 1.75586 73.751 1.75586 74.1147C1.75586 74.7009 2.2244 75.108 2.76833 75.108C3.91005 75.108 4.46475 74.1147 4.46475 72.9259V61.8418C4.46475 60.5337 4.3732 58.6122 4.3732 58.6122L11.2451 72.3234C11.5951 73.0019 12.5699 73.0019 12.9038 72.3234L19.7757 58.6122C19.7757 58.6122 19.6841 60.5337 19.6841 61.8418V72.9259C19.6841 74.1038 20.2442 75.108 21.3805 75.108C21.9406 75.108 22.393 74.7009 22.393 74.1147C22.393 73.751 22.2099 73.371 21.8329 73.2136Z" fill="black"/>
</svg>
