<svg width="203" height="102" viewBox="0 0 203 102" fill="none" xmlns="http://www.w3.org/2000/svg">
<mask id="mask0_446_1166" style="mask-type:luminance" maskUnits="userSpaceOnUse" x="1" y="38" width="201" height="26">
<path d="M201.547 38.5369H1.45898V63.4695H201.547V38.5369Z" fill="white"/>
</mask>
<g mask="url(#mask0_446_1166)">
<path d="M17.6609 38.537C25.9205 38.537 31.484 43.5605 31.484 51.0001C31.484 58.4398 25.9205 63.4633 17.6609 63.4633H1.45898V38.5306H17.6609V38.537ZM10.4608 58.3378H16.4175C19.6782 58.3378 21.981 55.3798 21.981 51.0001C21.981 46.6205 19.6782 43.6625 16.4175 43.6625H10.4608V58.3378Z" fill="#051A45"/>
<path d="M58.2675 63.4631L55.3621 57.1965H44.0195L41.076 63.4631H31.2559L44.2986 38.5305H55.0386L68.0813 63.4631H58.2612H58.2675ZM46.4999 51.816H52.8436L49.6908 45.0139L46.4999 51.816Z" fill="#051A45"/>
<path d="M80.1857 49.0748L88.2676 38.5305H98.0497L84.6136 55.59V63.4631H75.6118V55.59L62.1758 38.5305H71.9578L80.0398 49.0748H80.1793H80.1857Z" fill="#051A45"/>
<path d="M158.34 63.4631L155.434 57.1965H144.092L141.148 63.4631H131.328L144.371 38.5305H155.111L168.154 63.4631H158.333H158.34ZM146.572 51.816H152.916L149.763 45.0139L146.572 51.816Z" fill="#051A45"/>
<path d="M201.542 63.4631H192.077L183.037 50.2478H187.11C189.057 50.2478 190.37 49.0748 190.37 47.328C190.37 45.5813 189.057 44.2999 187.11 44.2999H181.756V63.4631H172.754V38.5305H189.768C195.826 38.5305 199.867 41.8455 199.867 46.4036C199.867 49.7505 197.672 52.0328 194.158 52.8169L201.529 63.4695L201.542 63.4631Z" fill="#051A45"/>
<path d="M111.021 58.3631H116.946C118.723 58.3631 119.89 57.2602 119.89 55.6537C119.89 54.0472 118.716 52.9444 116.946 52.9444H111.021V58.3631ZM111.021 48.3097H116.49C118.05 48.3097 119.116 47.3854 119.116 46.0275C119.116 44.5995 118.05 43.6751 116.49 43.6751H111.021V48.3097ZM129.336 56.4761C129.336 60.6517 126.138 63.4695 121.387 63.4695H102.045V38.5369H121.317C125.682 38.5369 128.594 40.9594 128.594 44.5995C128.594 46.8817 126.678 49.1321 123.804 50.0565C127.103 50.7322 129.342 53.2695 129.342 56.4761" fill="#051A45"/>
</g>
</svg>
