<svg width="91" height="68" viewBox="0 0 91 68" fill="none" xmlns="http://www.w3.org/2000/svg">
<path d="M67.7583 46.3516C67.5854 46.306 67.4216 46.2422 67.2578 46.1875V55.6712L68.5318 55.7532V46.5431C68.277 46.4975 68.0131 46.4337 67.7583 46.3607V46.3516Z" fill="#A6A8AB"/>
<path d="M63.2453 43.2877C62.8358 44.0263 62.308 44.6555 61.671 45.157V56.8111L56.8662 59.0999V46.6799C56.1928 46.6617 55.5012 46.5614 54.8096 46.379V62.3645L63.3818 58.1971V43.0141C63.3363 43.1144 63.2908 43.2056 63.2362 43.2968L63.2453 43.2877Z" fill="#A6A8AB"/>
<path d="M48.2847 45.075C47.766 45.5947 47.1381 45.996 46.4374 46.2513C46.2827 46.306 46.1189 46.3607 45.9551 46.4063V66.696L48.5031 65.4102V44.847C48.4303 44.9291 48.3666 45.0111 48.2847 45.0932V45.075Z" fill="#A6A8AB"/>
<path d="M35.5899 47.0082H34.7527V46.6252H33.3422L33.3149 59.3188L29.0015 57.5406V46.6252H27.2725V59.2276L36.0995 62.9572V47.0082H35.9266H35.5899Z" fill="#D0D2D3"/>
<path d="M44.235 46.6252H41.9873V65.4011L45.0085 66.6869V46.5796C44.7537 46.6069 44.4989 46.6252 44.235 46.6252Z" fill="#D0D2D3"/>
<path d="M34.7533 43.0962V42.5673H36.1001V14.1709L41.9878 11.5993V34.3146H44.2355C44.4994 34.3146 44.7542 34.3328 45.009 34.3602V7.53226L33.4065 12.9489L33.3428 43.0962H34.7442H34.7533Z" fill="#D0D2D3"/>
<path d="M23.4868 43.0962V33.658L27.2724 33.4118V34.3146H29.0014V31.2689L22.1309 31.6428V43.0962H23.4868Z" fill="#D0D2D3"/>
<path d="M22.1309 46.6252V56.4007L23.4868 57.039V46.6252H22.1309Z" fill="#D0D2D3"/>
<path d="M2.12012 45.4215C2.28392 45.3941 2.41132 45.3029 2.50232 45.157C2.59332 45.0111 2.68432 44.8379 2.77532 44.6555L6.23332 36.795C6.32432 36.6217 6.39712 36.4576 6.46992 36.3117C6.54272 36.1658 6.57002 36.0381 6.57002 35.9287C6.57002 35.8192 6.52452 35.7007 6.44262 35.646C6.35162 35.5913 6.26062 35.5548 6.16052 35.5274V35.1627H9.31822V35.5274C9.22722 35.5548 9.14532 35.5913 9.05432 35.6369C8.96332 35.6825 8.92692 35.7828 8.92692 35.9287C8.92692 36.0746 8.94512 36.1475 8.99062 36.2478C9.03612 36.3573 9.09982 36.494 9.19082 36.6764L13.0765 44.9017C13.1402 45.0476 13.2221 45.157 13.3313 45.2209C13.4405 45.2847 13.5588 45.3577 13.6953 45.4215V45.7862H10.4102V45.4215C10.4557 45.4215 10.5194 45.4033 10.6013 45.3577C10.6741 45.3212 10.7105 45.2573 10.7105 45.1753C10.7105 45.0385 10.665 44.8652 10.5649 44.6464L9.85512 43.1509H5.29602L4.62262 44.5825C4.49522 44.8652 4.43152 45.0659 4.43152 45.1935C4.43152 45.3212 4.54982 45.4124 4.78642 45.4124V45.7771H2.12922V45.4124L2.12012 45.4215ZM9.16352 41.6645L7.59832 37.9075L5.84202 41.6645H9.16352Z" fill="#C52028"/>
<path d="M24.5423 46.1692C24.5423 45.9686 24.4786 45.8501 24.3603 45.8227C24.242 45.7954 24.0873 45.7862 23.9053 45.7862H15.0146V45.4215C15.3877 45.4215 15.5788 45.3029 15.5788 45.0567V35.8831C15.5788 35.6369 15.3877 35.5183 15.0146 35.5183V35.1535H18.2269V35.5183C17.8811 35.5183 17.7082 35.6369 17.7082 35.8831V43.926H23.9144C24.1055 43.926 24.2511 43.8804 24.3694 43.7801C24.4877 43.6889 24.5514 43.5612 24.5514 43.3971H24.8881V46.1692H24.5514H24.5423Z" fill="#C52028"/>
<path d="M35.5902 46.1692C35.5902 45.9686 35.5265 45.8501 35.4082 45.8227C35.2899 45.7954 35.1352 45.7862 34.9532 45.7862H26.0625V45.4215C26.4356 45.4215 26.6267 45.3029 26.6267 45.0567V35.8831C26.6267 35.6369 26.4356 35.5183 26.0625 35.5183V35.1535H29.2748V35.5183C28.929 35.5183 28.7561 35.6369 28.7561 35.8831V43.926H34.9623C35.1534 43.926 35.299 43.8804 35.4173 43.7801C35.5356 43.6889 35.5993 43.5612 35.5993 43.3971H35.936V46.1692H35.5993H35.5902Z" fill="#C52028"/>
<path d="M44.2345 35.1535C44.917 35.1535 45.554 35.263 46.1455 35.4727C46.737 35.6916 47.2466 36.0107 47.6834 36.4576C48.1202 36.8953 48.466 37.4515 48.7117 38.1172C48.9574 38.7829 49.0848 39.5671 49.0848 40.4699C49.0848 41.3727 48.9574 42.1569 48.7117 42.8226C48.466 43.4883 48.1202 44.0445 47.6834 44.4822C47.2466 44.9199 46.737 45.2482 46.1455 45.458C45.554 45.6768 44.917 45.7771 44.2345 45.7771H38.0283V45.4124C38.3104 45.4124 38.456 45.2938 38.456 45.0476V35.8739C38.456 35.6277 38.3104 35.5092 38.0283 35.5092V35.1444H44.2345V35.1535ZM43.4883 44.0536C44.0707 44.0536 44.5803 43.9989 45.0171 43.8895C45.4539 43.7801 45.8179 43.5886 46.1 43.315C46.3821 43.0414 46.6005 42.6676 46.7461 42.2116C46.8917 41.7557 46.9645 41.172 46.9645 40.4699C46.9645 39.7677 46.8917 39.1932 46.7461 38.7282C46.6005 38.2722 46.3912 37.8983 46.1 37.6248C45.8088 37.3512 45.4539 37.1597 45.0171 37.0503C44.5803 36.9409 44.0707 36.8861 43.4883 36.8861H40.5945V44.0445H43.4883V44.0536Z" fill="#C52028"/>
<path d="M57.0385 35.035C57.721 35.035 58.4217 35.1444 59.1315 35.3724C59.8413 35.5913 60.4874 35.9287 61.0789 36.3755C61.6613 36.8223 62.1436 37.3877 62.5167 38.0625C62.8898 38.7464 63.0809 39.5489 63.0809 40.479C63.0809 41.4091 62.8898 42.2116 62.5167 42.8955C62.1436 43.5795 61.6613 44.1357 61.0789 44.5825C60.4965 45.0294 59.8413 45.3485 59.1315 45.5491C58.4217 45.7498 57.721 45.8501 57.0385 45.8501C56.356 45.8501 55.6553 45.7498 54.9455 45.5491C54.2357 45.3485 53.5896 45.0203 52.9981 44.5825C52.4157 44.1357 51.9334 43.5795 51.5603 42.8955C51.1872 42.2116 50.9961 41.4091 50.9961 40.479C50.9961 39.5489 51.1872 38.7464 51.5603 38.0625C51.9334 37.3786 52.4157 36.8223 52.9981 36.3755C53.5805 35.9287 54.2357 35.6004 54.9455 35.3724C55.6553 35.1535 56.356 35.035 57.0385 35.035ZM57.0385 36.8953C56.5653 36.8953 56.0921 36.9773 55.6189 37.1415C55.1457 37.3056 54.718 37.5336 54.3358 37.8345C53.9536 38.1354 53.6442 38.5093 53.4076 38.9562C53.171 39.403 53.0527 39.9045 53.0527 40.4699C53.0527 41.0353 53.171 41.5368 53.4076 41.9836C53.6442 42.4305 53.9536 42.8043 54.3358 43.1053C54.718 43.4062 55.1457 43.6433 55.6189 43.7983C56.0921 43.9625 56.5653 44.0445 57.0385 44.0445C57.5117 44.0445 57.9849 43.9625 58.4581 43.7983C58.9313 43.6342 59.359 43.4062 59.7412 43.1053C60.1234 42.8043 60.4328 42.4305 60.6694 41.9836C60.906 41.5368 61.0243 41.0353 61.0243 40.4699C61.0243 39.9045 60.906 39.403 60.6694 38.9562C60.4328 38.5093 60.1234 38.1354 59.7412 37.8345C59.359 37.5336 58.9313 37.2965 58.4581 37.1415C57.9849 36.9773 57.5117 36.8953 57.0385 36.8953Z" fill="#C52028"/>
<path d="M70.0785 35.035C70.761 35.035 71.4617 35.1444 72.1715 35.3724C72.8813 35.6004 73.5274 35.9287 74.1189 36.3755C74.7013 36.8223 75.1836 37.3877 75.5567 38.0625C75.9298 38.7464 76.1209 39.5489 76.1209 40.479C76.1209 41.4091 75.9298 42.2116 75.5567 42.8955C75.1836 43.5795 74.7013 44.1357 74.1189 44.5825C73.5365 45.0294 72.8813 45.3485 72.1715 45.5491C71.4617 45.7498 70.761 45.8501 70.0785 45.8501C69.396 45.8501 68.6953 45.7498 67.9855 45.5491C67.2757 45.3485 66.6296 45.0203 66.0381 44.5825C65.4557 44.1357 64.9734 43.5795 64.6003 42.8955C64.2272 42.2116 64.0361 41.4091 64.0361 40.479C64.0361 39.5489 64.2272 38.7464 64.6003 38.0625C64.9734 37.3786 65.4557 36.8223 66.0381 36.3755C66.6205 35.9287 67.2757 35.6004 67.9855 35.3724C68.6953 35.1444 69.396 35.035 70.0785 35.035ZM70.0785 36.8953C69.6053 36.8953 69.1321 36.9773 68.6589 37.1415C68.1857 37.3056 67.758 37.5336 67.3758 37.8345C66.9936 38.1354 66.6842 38.5093 66.4476 38.9562C66.211 39.403 66.0927 39.9045 66.0927 40.4699C66.0927 41.0353 66.211 41.5368 66.4476 41.9836C66.6842 42.4305 66.9936 42.8043 67.3758 43.1053C67.758 43.4062 68.1857 43.6433 68.6589 43.7983C69.1321 43.9625 69.6053 44.0445 70.0785 44.0445C70.5517 44.0445 71.0249 43.9625 71.4981 43.7983C71.9713 43.6342 72.399 43.4062 72.7812 43.1053C73.1634 42.8043 73.4728 42.4305 73.7094 41.9836C73.946 41.5368 74.0643 41.0353 74.0643 40.4699C74.0643 39.9045 73.946 39.403 73.7094 38.9562C73.4728 38.5093 73.1634 38.1354 72.7812 37.8345C72.399 37.5336 71.9713 37.2965 71.4981 37.1415C71.0249 36.9773 70.5517 36.8953 70.0785 36.8953Z" fill="#C52028"/>
<path d="M84.4842 35.1535C85.0848 35.1535 85.6217 35.2083 86.1131 35.3268C86.5954 35.4454 87.014 35.6277 87.3689 35.8739C87.7147 36.1202 87.9877 36.4484 88.1697 36.8406C88.3608 37.2418 88.4518 37.7251 88.4518 38.3087C88.4518 39.2024 88.2061 39.8772 87.7238 40.3513C87.2415 40.8255 86.5863 41.1356 85.7582 41.2997L88.2425 45.1388C88.3335 45.2756 88.4336 45.3577 88.5519 45.385C88.6702 45.4124 88.7794 45.4215 88.8795 45.4215V45.7862H85.3851V45.4215C85.4943 45.4215 85.5944 45.4032 85.6763 45.3577C85.7582 45.3212 85.7946 45.2665 85.7946 45.1935C85.7946 45.1206 85.7673 45.0476 85.7218 44.9655C85.6763 44.8743 85.5944 44.7558 85.4943 44.6099L83.4377 41.4547H80.7623V45.0567C80.7623 45.1753 80.7987 45.2665 80.8806 45.3303C80.9625 45.3941 81.1081 45.4215 81.3174 45.4215V45.7862H78.0869V45.4215C78.4509 45.4215 78.6329 45.3029 78.6329 45.0567V35.8831C78.6329 35.6369 78.4509 35.5183 78.0869 35.5183V35.1535H84.4751H84.4842ZM84.0019 39.8863C84.4478 39.8863 84.8209 39.8498 85.1212 39.7769C85.4215 39.7039 85.6581 39.5945 85.831 39.4668C86.0039 39.33 86.1313 39.175 86.2041 38.9926C86.2769 38.8102 86.3133 38.6096 86.3133 38.3999C86.3133 38.1902 86.2769 37.9895 86.2041 37.8072C86.1313 37.6248 86.0039 37.4698 85.831 37.333C85.6581 37.1962 85.4215 37.0959 85.1212 37.0229C84.8209 36.95 84.4478 36.9135 84.0019 36.9135H80.7714V39.9045H84.0019V39.8863Z" fill="#C52028"/>
<path d="M89.5074 48.0113H1.49219V56.9296H89.5074V48.0113Z" fill="#231F20"/>
<path d="M3.86734 53.4462L4.00384 53.5009C4.00384 53.5647 4.02204 53.6194 4.05844 53.6741C4.12214 53.7562 4.24044 53.8474 4.42244 53.9295C4.60444 54.0115 4.81374 54.0845 5.05034 54.1483C5.28694 54.2121 5.53264 54.2669 5.78744 54.3033C6.04224 54.3398 6.27884 54.358 6.47904 54.358C6.67924 54.358 6.82484 54.358 7.06144 54.3307C7.29804 54.3125 7.53464 54.276 7.77124 54.2213C7.99874 54.1666 8.19894 54.0845 8.37184 53.9842C8.54474 53.8839 8.62664 53.7562 8.62664 53.5829C8.62664 53.4097 8.54474 53.3003 8.39004 53.2182C8.23534 53.1361 8.02604 53.0814 7.78034 53.0449C7.52554 53.0084 7.23434 52.9902 6.91584 52.972C6.58824 52.9629 6.26064 52.9446 5.92394 52.9264C5.58724 52.9081 5.25964 52.8717 4.93204 52.8169C4.60444 52.7714 4.32234 52.6802 4.06754 52.5616C3.81274 52.4431 3.61254 52.2789 3.45784 52.0783C3.30314 51.8777 3.22124 51.6041 3.22124 51.2758C3.22124 50.9476 3.28494 50.8381 3.41234 50.6193C3.53974 50.4004 3.73994 50.2181 4.00384 50.0539C4.26774 49.8898 4.60444 49.753 5.01394 49.6527C5.42344 49.5524 5.90574 49.4977 6.45174 49.4977C6.99774 49.4977 7.33444 49.525 7.68024 49.5797C8.02604 49.6344 8.32634 49.6983 8.58114 49.7621C8.83594 49.8259 9.04524 49.8898 9.21814 49.9445C9.39104 49.9992 9.53664 50.0265 9.65494 50.0265C9.77324 50.0265 9.86424 50.0083 9.91884 49.9627L10.0826 50.0448L9.16354 51.3853L9.02704 51.3397C9.00884 51.2394 8.97244 51.1573 8.91784 51.0935C8.84504 51.0114 8.72674 50.9202 8.56294 50.8381C8.39914 50.7561 8.20804 50.6831 7.98054 50.6193C7.76214 50.5554 7.51644 50.5007 7.26164 50.4643C7.00684 50.4278 6.74294 50.4095 6.48814 50.4095C6.23334 50.4095 6.08774 50.4187 5.87844 50.446C5.66914 50.4734 5.47804 50.5099 5.31424 50.5555C5.14134 50.6102 5.00484 50.674 4.89564 50.7561C4.78644 50.8381 4.73184 50.9384 4.73184 51.0661C4.73184 51.1938 4.81374 51.367 4.96844 51.4491C5.12314 51.5312 5.32334 51.595 5.57814 51.6406C5.83294 51.6862 6.11504 51.7136 6.44264 51.7227C6.77024 51.7409 7.09784 51.7591 7.43454 51.7774C7.77124 51.7956 8.09884 51.8321 8.42644 51.8868C8.75404 51.9415 9.03614 52.0236 9.29094 52.1421C9.54574 52.2607 9.74594 52.4157 9.90064 52.6163C10.0553 52.8169 10.1372 53.0814 10.1372 53.4006C10.1372 53.7197 10.0189 54.0754 9.77324 54.3125C9.52754 54.5495 9.22724 54.7319 8.86324 54.8687C8.49924 55.0055 8.10794 55.0967 7.68934 55.1423C7.27074 55.1879 6.87034 55.2152 6.51544 55.2152C6.16054 55.2152 5.58724 55.1879 5.24144 55.1423C4.89564 55.0967 4.61354 55.042 4.38604 54.969C4.15854 54.9052 3.97654 54.8414 3.84914 54.7866C3.71264 54.7319 3.60344 54.7046 3.50334 54.7046C3.40324 54.7046 3.38504 54.7319 3.33044 54.7866L3.14844 54.7046L3.87644 53.4097L3.86734 53.4462Z" fill="white"/>
<path d="M20.8028 49.7712C20.6117 49.7712 20.5116 49.8351 20.5116 49.9627V53.1817C20.5116 53.6285 20.6936 53.9386 21.0485 54.1118C21.4034 54.2851 21.9312 54.3672 22.6228 54.3672C23.3144 54.3672 23.8422 54.2851 24.1971 54.1118C24.552 53.9386 24.734 53.6377 24.734 53.1817V49.9627C24.734 49.8351 24.5975 49.7712 24.3336 49.7712V49.5797H26.463V49.7712C26.2537 49.7712 26.1445 49.8351 26.1445 49.9627V53.127C26.1445 53.5465 26.0717 53.893 25.917 54.1757C25.7623 54.4492 25.5439 54.6681 25.2345 54.8322C24.9342 54.9964 24.5611 55.1058 24.1061 55.1605C23.6602 55.2152 23.1415 55.2426 22.5591 55.2426C21.9767 55.2426 21.458 55.2152 21.0121 55.1605C20.5662 55.1058 20.1931 54.9964 19.8837 54.8322C19.5834 54.6681 19.3559 54.4492 19.2012 54.1757C19.0465 53.9021 18.9737 53.5556 18.9737 53.127V49.9627C18.9737 49.8351 18.8463 49.7712 18.6006 49.7712V49.5797H20.7846V49.7712H20.8028Z" fill="white"/>
<path d="M35.0166 55.2152V55.0237C35.3442 55.0237 35.508 54.9599 35.508 54.8322V49.9627C35.508 49.8351 35.3442 49.7712 35.0166 49.7712V49.5797H39.7031C40.5585 49.5797 41.2228 49.7074 41.7142 49.9627C42.2056 50.2181 42.4422 50.6466 42.4422 51.2576C42.4422 51.8686 42.1965 52.2972 41.7142 52.5525C41.2228 52.8078 40.5585 52.9355 39.7031 52.9355H37.0277V54.8414C37.0277 54.969 37.1733 55.0329 37.4554 55.0329V55.2244H35.0166V55.2152ZM39.8669 51.9415C40.1581 51.9415 40.4129 51.8959 40.6222 51.8047C40.8315 51.7136 40.9316 51.5312 40.9316 51.2576C40.9316 50.984 40.8315 50.8017 40.6222 50.7105C40.4129 50.6193 40.1672 50.5737 39.8669 50.5737H37.0277V51.9507H39.8669V51.9415Z" fill="white"/>
<path d="M50.5596 55.2152V55.0237C50.8872 55.0237 51.051 54.9599 51.051 54.8322V49.9627C51.051 49.8351 50.8872 49.7712 50.5596 49.7712V49.5797H55.2461C56.1015 49.5797 56.7658 49.7074 57.2572 49.9627C57.7486 50.2181 57.9852 50.6466 57.9852 51.2576C57.9852 51.8686 57.7395 52.2972 57.2572 52.5525C56.7658 52.8078 56.1015 52.9355 55.2461 52.9355H52.5707V54.8414C52.5707 54.969 52.7163 55.0329 52.9984 55.0329V55.2244H50.5596V55.2152ZM55.4099 51.9415C55.7011 51.9415 55.9559 51.8959 56.1652 51.8047C56.3745 51.7136 56.4746 51.5312 56.4746 51.2576C56.4746 50.984 56.3745 50.8017 56.1652 50.7105C55.9559 50.6193 55.7102 50.5737 55.4099 50.5737H52.5707V51.9507H55.4099V51.9415Z" fill="white"/>
<path d="M72.7271 55.425C72.7271 55.3155 72.6816 55.2608 72.5997 55.2426C72.5178 55.2244 72.4086 55.2244 72.2721 55.2244H65.9385V55.0329C66.2024 55.0329 66.3389 54.969 66.3389 54.8414V49.9718C66.3389 49.8442 66.2024 49.7803 65.9385 49.7803V49.5888H68.2317V49.7803C67.986 49.7803 67.8586 49.8442 67.8586 49.9718V54.2395H72.2812C72.4177 54.2395 72.5269 54.2122 72.6088 54.1666C72.6907 54.121 72.7362 54.048 72.7362 53.9659H72.9728V55.4341H72.7362L72.7271 55.425Z" fill="white"/>
<path d="M82.7918 49.5797V49.7712C82.7099 49.7712 82.6371 49.7712 82.5643 49.7986C82.4915 49.8168 82.4551 49.8624 82.4551 49.9354C82.4551 50.0083 82.5188 50.0813 82.6462 50.2454C82.7736 50.4096 82.9283 50.5919 83.1012 50.7925C83.2741 50.9932 83.4561 51.2029 83.6381 51.4218C83.8201 51.6406 83.9748 51.823 84.0931 51.9689L85.6492 50.2454C85.722 50.1633 85.7766 50.0904 85.8221 50.0448C85.8676 49.9992 85.8858 49.9445 85.8858 49.908C85.8858 49.8715 85.8403 49.8259 85.7584 49.8077C85.6765 49.7895 85.5946 49.7895 85.5218 49.7895V49.598H87.8514V49.7895C87.7786 49.7895 87.7149 49.7895 87.6512 49.8077C87.5875 49.8168 87.5238 49.8442 87.4601 49.8807C87.3964 49.9171 87.3236 49.981 87.2508 50.0539C87.178 50.1269 87.087 50.2272 86.9778 50.364L84.7119 52.9446V54.8505C84.7119 54.9781 84.812 55.042 85.0213 55.042V55.2335H82.9192V55.042C83.0011 55.042 83.0648 55.0237 83.1194 54.9964C83.174 54.969 83.2013 54.9143 83.2013 54.8505V52.9446L80.6351 50.0448C80.5714 49.9718 80.4804 49.908 80.353 49.8624C80.2256 49.8168 80.1164 49.7895 80.0254 49.7895V49.598H82.7918V49.5797Z" fill="white"/>
<path d="M46.4371 34.6885C47.1378 34.9438 47.7657 35.3451 48.2844 35.8648C48.3572 35.9378 48.43 36.029 48.5028 36.111V5.52609L54.8182 8.23442V34.5426C55.5098 34.3328 56.1923 34.2234 56.8748 34.2143V6.41063L45.9639 1.30402V34.5335C46.1277 34.5791 46.2915 34.6247 46.4462 34.6885H46.4371Z" fill="#A6A8AB"/>
<path d="M63.2452 37.6521C63.2998 37.7433 63.3453 37.8436 63.3908 37.9348V21.7122L67.2583 22.6241V34.7341C67.413 34.6702 67.5768 34.6155 67.7406 34.5608C68.0045 34.4787 68.2684 34.4149 68.5323 34.3602V20.928L61.6709 18.8489V35.7736C62.2988 36.2752 62.8357 36.9044 63.2452 37.643V37.6521Z" fill="#A6A8AB"/>
</svg>
