<svg width="410" height="304" viewBox="0 0 410 304" fill="none" xmlns="http://www.w3.org/2000/svg">
<g clip-path="url(#clip0_142_245)">
<path d="M308.16 209.05C307.36 208.84 306.59 208.54 305.83 208.29V252.3L311.75 252.68V209.94C310.57 209.73 309.34 209.43 308.15 209.09V209.05H308.16Z" fill="#59595B"/>
<path d="M287.17 194.83C285.27 198.26 282.81 201.18 279.85 203.51V257.59L257.51 268.21V210.57C254.38 210.49 251.16 210.02 247.95 209.17V283.35L287.81 264.01V193.55C287.6 194.02 287.39 194.44 287.13 194.86L287.17 194.82V194.83Z" fill="#59595B"/>
<path d="M217.64 203.13C215.23 205.54 212.31 207.4 209.05 208.59C208.33 208.84 207.57 209.1 206.81 209.31V303.47L218.66 297.5V202.07C218.32 202.45 218.03 202.83 217.64 203.21V203.13Z" fill="#59595B"/>
<path d="M158.57 212.1H154.67V210.32H148.16L148.03 269.23L127.97 260.98V210.32H119.93V268.8L160.94 286.11V212.1H160.13H158.57Z" fill="#7F8082"/>
<path d="M198.81 210.32H188.36V297.45L202.41 303.42V210.11C201.23 210.24 200.04 210.32 198.81 210.32Z" fill="#7F8082"/>
<path d="M154.67 193.94V191.49H160.93V59.7099L188.31 47.7799V153.19H198.76C199.99 153.19 201.17 153.27 202.36 153.4V28.8999L148.4 54.0399L148.1 193.94H154.66H154.67Z" fill="#7F8082"/>
<path d="M102.33 193.94V150.14L119.93 149V153.19H127.97V139.06L95.9805 140.79V193.94H102.33Z" fill="#7F8082"/>
<path d="M95.9805 210.32V255.69L102.33 258.65V210.32H95.9805Z" fill="#7F8082"/>
<path d="M2.95996 204.73C3.71996 204.6 4.30996 204.18 4.73996 203.5C5.16996 202.82 5.58996 202.02 6.00996 201.17L22.09 164.69C22.51 163.89 22.85 163.12 23.19 162.45C23.53 161.77 23.66 161.18 23.66 160.67C23.66 160.16 23.45 159.61 23.07 159.36C22.65 159.11 22.22 158.94 21.76 158.81V157.12H36.44V158.81C36.02 158.94 35.64 159.11 35.21 159.32C34.78 159.53 34.62 160 34.62 160.67C34.62 161.34 34.7 161.69 34.92 162.15C35.13 162.66 35.43 163.29 35.85 164.14L53.92 202.31C54.22 202.99 54.6 203.49 55.1 203.79C55.6 204.09 56.16 204.42 56.79 204.72V206.41H41.51V204.72C41.72 204.72 42.02 204.64 42.4 204.42C42.74 204.25 42.91 203.95 42.91 203.57C42.91 202.94 42.7 202.13 42.23 201.12L38.93 194.18H17.73L14.6 200.82C14.01 202.13 13.71 203.06 13.71 203.66C13.71 204.26 14.26 204.68 15.36 204.68V206.37H2.99996V204.68L2.95996 204.72V204.73ZM35.72 187.3L28.44 169.86L20.27 187.3H35.72Z" fill="#BD3433"/>
<path d="M107.23 208.2C107.23 207.27 106.93 206.72 106.38 206.59C105.83 206.46 105.11 206.42 104.26 206.42H62.9199V204.73C64.6599 204.73 65.5399 204.18 65.5399 203.04V160.47C65.5399 159.33 64.6499 158.78 62.9199 158.78V157.09H77.8599V158.78C76.2499 158.78 75.4499 159.33 75.4499 160.47V197.79H104.31C105.2 197.79 105.88 197.58 106.43 197.11C106.98 196.69 107.28 196.09 107.28 195.33H108.85V208.19H107.24L107.23 208.2Z" fill="#BD3433"/>
<path d="M158.57 208.2C158.57 207.27 158.27 206.72 157.72 206.59C157.17 206.46 156.45 206.42 155.6 206.42H114.26V204.73C116 204.73 116.88 204.18 116.88 203.04V160.47C116.88 159.33 115.99 158.78 114.26 158.78V157.09H129.2V158.78C127.59 158.78 126.79 159.33 126.79 160.47V197.79H155.65C156.54 197.79 157.22 197.58 157.77 197.11C158.32 196.69 158.62 196.09 158.62 195.33H160.19V208.19H158.58L158.57 208.2Z" fill="#BD3433"/>
<path d="M198.81 157.08C201.98 157.08 204.95 157.59 207.7 158.56C210.45 159.58 212.82 161.06 214.85 163.13C216.88 165.16 218.49 167.74 219.63 170.83C220.77 173.92 221.37 177.56 221.37 181.75C221.37 185.94 220.78 189.58 219.63 192.67C218.49 195.76 216.88 198.34 214.85 200.37C212.82 202.4 210.45 203.92 207.7 204.9C204.95 205.92 201.99 206.38 198.81 206.38H169.95V204.69C171.26 204.69 171.94 204.14 171.94 203V160.43C171.94 159.29 171.26 158.74 169.95 158.74V157.05H198.81V157.09V157.08ZM195.34 198.39C198.05 198.39 200.42 198.14 202.45 197.63C204.48 197.12 206.17 196.23 207.49 194.96C208.81 193.69 209.82 191.96 210.49 189.84C211.16 187.72 211.51 185.02 211.51 181.76C211.51 178.5 211.17 175.84 210.49 173.68C209.81 171.56 208.84 169.83 207.49 168.56C206.14 167.29 204.49 166.4 202.45 165.89C200.42 165.38 198.05 165.13 195.34 165.13H181.88V198.35H195.34V198.39Z" fill="#BD3433"/>
<path d="M258.31 156.53C261.48 156.53 264.74 157.04 268.04 158.1C271.34 159.12 274.35 160.68 277.1 162.75C279.81 164.82 282.05 167.45 283.79 170.58C285.53 173.75 286.41 177.48 286.41 181.79C286.41 186.1 285.52 189.83 283.79 193C282.05 196.17 279.81 198.76 277.1 200.83C274.39 202.9 271.34 204.38 268.04 205.32C264.74 206.25 261.48 206.72 258.31 206.72C255.14 206.72 251.88 206.25 248.58 205.32C245.28 204.39 242.27 202.87 239.52 200.83C236.81 198.76 234.57 196.18 232.83 193C231.09 189.82 230.21 186.1 230.21 181.79C230.21 177.48 231.1 173.75 232.83 170.58C234.57 167.41 236.81 164.82 239.52 162.75C242.23 160.68 245.28 159.15 248.58 158.1C251.88 157.08 255.14 156.53 258.31 156.53ZM258.31 165.17C256.11 165.17 253.91 165.55 251.71 166.31C249.51 167.07 247.52 168.13 245.74 169.53C243.96 170.93 242.52 172.66 241.42 174.74C240.32 176.81 239.77 179.14 239.77 181.76C239.77 184.38 240.32 186.71 241.42 188.78C242.52 190.85 243.96 192.59 245.74 193.99C247.52 195.39 249.51 196.49 251.71 197.21C253.91 197.97 256.11 198.35 258.31 198.35C260.51 198.35 262.71 197.97 264.91 197.21C267.11 196.45 269.1 195.39 270.88 193.99C272.66 192.59 274.1 190.86 275.2 188.78C276.3 186.71 276.85 184.38 276.85 181.76C276.85 179.14 276.3 176.81 275.2 174.74C274.1 172.67 272.66 170.93 270.88 169.53C269.1 168.13 267.11 167.03 264.91 166.31C262.71 165.55 260.51 165.17 258.31 165.17Z" fill="#BD3433"/>
<path d="M318.95 156.53C322.12 156.53 325.38 157.04 328.68 158.1C331.98 159.16 334.99 160.68 337.74 162.75C340.45 164.82 342.69 167.45 344.43 170.58C346.17 173.75 347.05 177.48 347.05 181.79C347.05 186.1 346.16 189.83 344.43 193C342.69 196.17 340.45 198.76 337.74 200.83C335.03 202.9 331.98 204.38 328.68 205.32C325.38 206.25 322.12 206.72 318.95 206.72C315.78 206.72 312.52 206.25 309.22 205.32C305.92 204.39 302.91 202.87 300.16 200.83C297.45 198.76 295.21 196.18 293.47 193C291.73 189.82 290.85 186.1 290.85 181.79C290.85 177.48 291.74 173.75 293.47 170.58C295.21 167.41 297.45 164.82 300.16 162.75C302.87 160.68 305.92 159.15 309.22 158.1C312.52 157.08 315.78 156.53 318.95 156.53ZM318.95 165.17C316.75 165.17 314.55 165.55 312.35 166.31C310.15 167.07 308.16 168.13 306.38 169.53C304.6 170.93 303.16 172.66 302.06 174.74C300.96 176.81 300.41 179.14 300.41 181.76C300.41 184.38 300.96 186.71 302.06 188.78C303.16 190.85 304.6 192.59 306.38 193.99C308.16 195.39 310.15 196.49 312.35 197.21C314.55 197.97 316.75 198.35 318.95 198.35C321.15 198.35 323.35 197.97 325.55 197.21C327.75 196.45 329.74 195.39 331.52 193.99C333.3 192.59 334.74 190.86 335.84 188.78C336.94 186.71 337.49 184.38 337.49 181.76C337.49 179.14 336.94 176.81 335.84 174.74C334.74 172.67 333.3 170.93 331.52 169.53C329.74 168.13 327.75 167.03 325.55 166.31C323.35 165.55 321.15 165.17 318.95 165.17Z" fill="#BD3433"/>
<path d="M385.94 157.08C388.73 157.08 391.23 157.33 393.51 157.88C395.75 158.43 397.7 159.28 399.35 160.42C400.96 161.56 402.23 163.09 403.07 164.91C403.96 166.77 404.38 169.01 404.38 171.72C404.38 175.87 403.24 179 400.99 181.2C398.75 183.4 395.7 184.84 391.85 185.6L403.4 203.42C403.82 204.05 404.29 204.44 404.84 204.56C405.39 204.69 405.9 204.73 406.36 204.73V206.42H390.11V204.73C390.62 204.73 391.08 204.65 391.46 204.43C391.84 204.26 392.01 204.01 392.01 203.67C392.01 203.33 391.88 202.99 391.67 202.61C391.46 202.19 391.08 201.64 390.61 200.96L381.05 186.32H368.61V203.04C368.61 203.59 368.78 204.01 369.16 204.31C369.54 204.61 370.22 204.73 371.19 204.73V206.42H356.17V204.73C357.86 204.73 358.71 204.18 358.71 203.04V160.47C358.71 159.33 357.86 158.78 356.17 158.78V157.09H385.92L385.94 157.08ZM383.7 179.05C385.77 179.05 387.51 178.88 388.91 178.54C390.31 178.2 391.41 177.69 392.21 177.1C393.01 176.47 393.61 175.75 393.95 174.9C394.29 174.05 394.46 173.12 394.46 172.15C394.46 171.18 394.29 170.25 393.95 169.4C393.61 168.55 393.02 167.83 392.21 167.2C391.41 166.57 390.31 166.1 388.91 165.76C387.51 165.42 385.78 165.25 383.7 165.25H368.68V179.13H383.7V179.05Z" fill="#BD3433"/>
<path d="M409.3 216.75H0V258.14H409.3V216.75Z" fill="white"/>
<path d="M11.0502 241.97L11.6802 242.22C11.6802 242.52 11.7602 242.77 11.9302 243.02C12.2302 243.4 12.7802 243.82 13.6202 244.2C14.4702 244.58 15.4402 244.92 16.5402 245.22C17.6402 245.52 18.7802 245.77 19.9702 245.94C21.1502 246.11 22.2602 246.19 23.1902 246.19C24.1202 246.19 24.8002 246.19 25.9002 246.06C27.0002 245.98 28.1002 245.81 29.2002 245.55C30.2602 245.3 31.1902 244.92 31.9902 244.45C32.7902 243.98 33.1702 243.39 33.1702 242.59C33.1702 241.79 32.7902 241.28 32.0702 240.9C31.3502 240.52 30.3802 240.27 29.2302 240.1C28.0502 239.93 26.6902 239.85 25.2102 239.76C23.6902 239.72 22.1602 239.63 20.6002 239.55C19.0302 239.47 17.5102 239.3 15.9902 239.04C14.4702 238.83 13.1502 238.41 11.9702 237.86C10.7902 237.31 9.8502 236.55 9.1302 235.62C8.4102 234.69 8.0302 233.42 8.0302 231.9C8.0302 230.38 8.3302 229.87 8.9202 228.85C9.5102 227.83 10.4402 226.99 11.6702 226.23C12.9002 225.47 14.4602 224.83 16.3702 224.37C18.2702 223.9 20.5202 223.65 23.0602 223.65C25.6002 223.65 27.1602 223.78 28.7702 224.03C30.3802 224.28 31.7702 224.58 32.9602 224.88C34.1502 225.18 35.1202 225.47 35.9202 225.73C36.7202 225.99 37.4002 226.11 37.9502 226.11C38.5002 226.11 38.9202 226.03 39.1802 225.81L39.9402 226.19L35.6702 232.41L35.0402 232.2C34.9602 231.73 34.7902 231.35 34.5302 231.06C34.1902 230.68 33.6402 230.26 32.8802 229.88C32.1202 229.5 31.2302 229.16 30.1702 228.86C29.1502 228.56 28.0102 228.31 26.8302 228.14C25.6502 227.97 24.4202 227.89 23.2302 227.89C22.0402 227.89 21.3702 227.93 20.3902 228.06C19.4202 228.19 18.5302 228.36 17.7702 228.57C16.9702 228.82 16.3302 229.12 15.8202 229.5C15.3102 229.88 15.0602 230.35 15.0602 230.94C15.0602 231.53 15.4402 232.34 16.1602 232.72C16.8802 233.1 17.8102 233.4 19.0002 233.61C20.1902 233.82 21.5002 233.95 23.0202 233.99C24.5402 234.07 26.0702 234.16 27.6302 234.24C29.2002 234.32 30.7202 234.49 32.2402 234.75C33.7602 235 35.0802 235.38 36.2602 235.93C37.4402 236.48 38.3802 237.2 39.1002 238.13C39.8202 239.06 40.2002 240.29 40.2002 241.77C40.2002 243.25 39.6502 244.9 38.5102 246C37.3702 247.1 35.9702 247.95 34.2802 248.58C32.5902 249.21 30.7702 249.64 28.8202 249.85C26.8702 250.06 25.0102 250.19 23.3602 250.19C21.7102 250.19 19.0402 250.06 17.4402 249.85C15.8402 249.64 14.5202 249.38 13.4602 249.05C12.4002 248.75 11.5602 248.46 10.9602 248.2C10.3302 247.95 9.8202 247.82 9.3502 247.82C8.8802 247.82 8.8002 247.95 8.5502 248.2L7.7002 247.82L11.0902 241.81L11.0502 241.98V241.97Z" fill="#282425"/>
<path d="M89.8003 224.92C88.9103 224.92 88.4503 225.22 88.4503 225.81V240.75C88.4503 242.82 89.3003 244.26 90.9503 245.07C92.6003 245.88 95.0503 246.25 98.2703 246.25C101.49 246.25 103.94 245.87 105.59 245.07C107.24 244.27 108.09 242.87 108.09 240.75V225.81C108.09 225.22 107.46 224.92 106.23 224.92V224.03H116.13V224.92C115.16 224.92 114.65 225.22 114.65 225.81V240.49C114.65 242.44 114.31 244.04 113.59 245.36C112.87 246.63 111.85 247.65 110.42 248.41C109.02 249.17 107.29 249.68 105.17 249.93C103.1 250.18 100.68 250.31 97.9803 250.31C95.2803 250.31 92.8603 250.18 90.7903 249.93C88.7203 249.68 86.9803 249.17 85.5403 248.41C84.1403 247.65 83.0903 246.63 82.3703 245.36C81.6503 244.09 81.3103 242.48 81.3103 240.49V225.81C81.3103 225.22 80.7203 224.92 79.5703 224.92V224.03H89.7303V224.92H89.8103H89.8003Z" fill="#282425"/>
<path d="M155.94 250.18V249.29C157.46 249.29 158.23 248.99 158.23 248.4V225.8C158.23 225.21 157.47 224.91 155.94 224.91V224.02H177.73C181.71 224.02 184.8 224.61 187.08 225.8C189.36 226.99 190.47 228.97 190.47 231.81C190.47 234.65 189.33 236.63 187.08 237.82C184.79 239 181.71 239.6 177.73 239.6H165.29V248.44C165.29 249.03 165.97 249.33 167.28 249.33V250.22H155.94V250.18ZM178.46 234.99C179.81 234.99 181 234.78 181.97 234.36C182.94 233.94 183.41 233.09 183.41 231.82C183.41 230.55 182.94 229.7 181.97 229.28C181 228.86 179.85 228.65 178.46 228.65H165.26V235.04H178.46V235V234.99Z" fill="#282425"/>
<path d="M228.181 250.18V249.29C229.701 249.29 230.471 248.99 230.471 248.4V225.8C230.471 225.21 229.711 224.91 228.181 224.91V224.02H249.971C253.951 224.02 257.041 224.61 259.321 225.8C261.611 226.98 262.711 228.97 262.711 231.81C262.711 234.65 261.571 236.63 259.321 237.82C257.031 239 253.951 239.6 249.971 239.6H237.531V248.44C237.531 249.03 238.211 249.33 239.521 249.33V250.22H228.181V250.18ZM250.731 234.99C252.081 234.99 253.271 234.78 254.241 234.36C255.211 233.94 255.681 233.09 255.681 231.82C255.681 230.55 255.211 229.7 254.241 229.28C253.271 228.86 252.121 228.65 250.731 228.65H237.531V235.04H250.731V235V234.99Z" fill="#282425"/>
<path d="M331.31 251.16C331.31 250.65 331.1 250.4 330.72 250.31C330.34 250.22 329.83 250.23 329.2 250.23H299.75V249.34C300.98 249.34 301.61 249.04 301.61 248.45V225.85C301.61 225.26 300.98 224.96 299.75 224.96V224.07H310.41V224.96C309.27 224.96 308.67 225.26 308.67 225.85V245.65H329.24C329.87 245.65 330.38 245.52 330.76 245.31C331.14 245.1 331.35 244.76 331.35 244.38H332.45V251.19H331.35L331.31 251.15V251.16Z" fill="#282425"/>
<path d="M378.11 224.03V224.92C377.73 224.92 377.39 224.92 377.05 225.05C376.71 225.13 376.54 225.35 376.54 225.68C376.54 226.01 376.84 226.36 377.43 227.12C378.02 227.88 378.74 228.73 379.55 229.66C380.36 230.59 381.2 231.56 382.05 232.58C382.9 233.6 383.62 234.44 384.17 235.12L391.41 227.12C391.75 226.74 392 226.4 392.21 226.19C392.42 225.98 392.51 225.72 392.51 225.56C392.51 225.4 392.3 225.18 391.92 225.09C391.54 225.01 391.16 225.01 390.82 225.01V224.12H401.65V225.01C401.31 225.01 401.02 225.01 400.72 225.09C400.42 225.17 400.13 225.26 399.83 225.43C399.53 225.6 399.2 225.9 398.86 226.23C398.52 226.57 398.1 227.03 397.59 227.67L387.05 239.65V248.49C387.05 249.08 387.52 249.38 388.49 249.38V250.27H378.71V249.38C379.09 249.38 379.39 249.3 379.64 249.17C379.89 249.04 380.02 248.79 380.02 248.49V239.65L368.09 226.19C367.79 225.85 367.37 225.56 366.78 225.34C366.19 225.13 365.68 225 365.26 225V224.11H378.12V224.03H378.11Z" fill="#282425"/>
<path d="M209.05 154.93C212.31 156.11 215.23 157.98 217.64 160.39C217.98 160.73 218.32 161.15 218.66 161.53V19.59L248.03 32.16V154.25C251.25 153.28 254.42 152.77 257.59 152.73V23.7L206.85 0V154.21C207.61 154.42 208.37 154.63 209.09 154.93H209.05Z" fill="#59595B"/>
<path d="M287.17 168.68C287.42 169.1 287.64 169.57 287.85 169.99V94.7099L305.84 98.9399V155.14C306.56 154.84 307.32 154.59 308.08 154.34C309.31 153.96 310.53 153.66 311.76 153.41V91.0799L279.85 81.4299V159.97C282.77 162.3 285.27 165.22 287.17 168.65V168.69V168.68Z" fill="#59595B"/>
</g>
<defs>
<clipPath id="clip0_142_245">
<rect width="409.3" height="303.46" fill="white"/>
</clipPath>
</defs>
</svg>
