<?xml version="1.0" encoding="UTF-8"?>
<svg id="Layer_1" xmlns="http://www.w3.org/2000/svg" version="1.1" viewBox="0 0 160 61.74">
  <!-- Generator: Adobe Illustrator 30.5.1, SVG Export Plug-In . SVG Version: 2.1.4 Build 3)  -->
  <defs>
    <style>
      .st0 {
        fill: #c52028;
      }

      .st1 {
        fill: #fff;
      }
    </style>
  </defs>
  <path class="st0" d="M160,0H0v61.74h160V0Z"/>
  <path class="st1" d="M95.64,41c-.31-.13-.67-.2-1.11-.2h-4.15v2.01h4.15c.42,0,.8-.07,1.11-.2.31-.13.46-.4.46-.8s-.15-.67-.46-.8Z"/>
  <path class="st1" d="M72.84,41c-.31-.13-.67-.2-1.11-.2h-4.15v2.01h4.15c.42,0,.8-.07,1.11-.2.31-.13.46-.4.46-.8s-.15-.67-.46-.8Z"/>
  <path class="st1" d="M16.37,33.26c.24-.04.42-.18.56-.39.14-.21.27-.47.4-.73l5.08-11.51c.13-.25.24-.49.35-.71.11-.22.15-.4.15-.56s-.07-.33-.19-.42c-.13-.08-.27-.13-.42-.18v-.53h4.64v.53c-.13.04-.25.09-.39.16-.13.07-.19.22-.19.42s.02.32.09.47c.07.16.16.36.29.63l5.7,12.05c.09.22.22.37.37.47.15.1.33.2.53.29v.53h-4.82v-.53c.07,0,.16-.02.28-.09.11-.05.16-.15.16-.27,0-.2-.07-.46-.22-.77l-1.04-2.19h-6.69l-.99,2.1c-.19.42-.28.71-.28.88s.18.32.52.32v.53h-3.89v-.53l-.02.02h0ZM26.69,27.76l-2.3-5.5-2.58,5.5h4.88Z"/>
  <path class="st1" d="M49.26,34.36c0-.29-.08-.47-.25-.51s-.4-.05-.67-.05h-13.05v-.53c.55,0,.83-.18.83-.53v-13.44c0-.36-.28-.53-.83-.53v-.53h4.72v.53c-.51,0-.76.18-.76.53v11.78h9.1c.28,0,.49-.07.67-.22.18-.13.25-.32.25-.56h.49v4.05h-.49v.02Z"/>
  <path class="st1" d="M65.47,34.36c0-.29-.08-.47-.25-.51s-.4-.05-.67-.05h-13.05v-.53c.55,0,.83-.18.83-.53v-13.44c0-.36-.28-.53-.83-.53v-.53h4.72v.53c-.51,0-.76.18-.76.53v11.78h9.1c.28,0,.49-.07.67-.22.18-.13.25-.32.25-.56h.49v4.05h-.49v.02Z"/>
  <path class="st1" d="M78.15,18.24c1,0,1.94.16,2.81.47.87.32,1.61.79,2.26,1.43.64.64,1.13,1.46,1.51,2.43.36.97.55,2.12.55,3.45s-.19,2.47-.55,3.45c-.36.97-.87,1.79-1.51,2.43-.64.64-1.39,1.12-2.26,1.43-.87.32-1.81.47-2.81.47h-9.1v-.53c.42,0,.63-.18.63-.53v-13.44c0-.36-.22-.53-.63-.53v-.53h9.1v.02h0ZM77.05,31.26c.86,0,1.61-.08,2.25-.24s1.17-.44,1.59-.84.73-.95.95-1.61.32-1.52.32-2.55-.11-1.87-.32-2.55c-.22-.67-.52-1.2-.95-1.61-.42-.4-.95-.68-1.59-.84-.64-.16-1.39-.24-2.25-.24h-4.25v10.47h4.25v.02Z"/>
  <path class="st1" d="M96.93,18.06c1,0,2.03.16,3.07.49,1.04.32,1.99.82,2.85,1.47.86.66,1.57,1.47,2.11,2.47.55,1,.83,2.18.83,3.54s-.28,2.54-.83,3.54c-.55,1-1.26,1.81-2.11,2.47-.86.66-1.81,1.12-2.85,1.42-1.04.3-2.07.44-3.07.44s-2.03-.15-3.07-.44c-1.04-.29-1.99-.77-2.85-1.42-.86-.66-1.57-1.47-2.11-2.47s-.83-2.18-.83-3.54.28-2.54.83-3.54c.55-1,1.26-1.81,2.11-2.47s1.81-1.13,2.85-1.47c1.04-.32,2.07-.49,3.07-.49ZM96.93,20.79c-.69,0-1.39.12-2.08.36s-1.32.57-1.88,1.02c-.56.44-1.02.99-1.37,1.64-.35.66-.52,1.39-.52,2.21s.18,1.57.52,2.21c.35.66.8,1.2,1.37,1.64.56.44,1.19.79,1.88,1.02.69.24,1.39.36,2.08.36s1.39-.12,2.08-.36c.69-.24,1.32-.57,1.88-1.02.56-.44,1.02-.99,1.37-1.64.35-.66.52-1.39.52-2.21s-.18-1.57-.52-2.21c-.35-.66-.8-1.2-1.37-1.64-.56-.44-1.19-.79-1.88-1.02-.69-.24-1.39-.36-2.08-.36Z"/>
  <path class="st1" d="M116.06,18.06c1,0,2.03.16,3.07.49,1.04.32,1.99.82,2.85,1.47.86.66,1.57,1.47,2.11,2.47.55,1,.83,2.18.83,3.54s-.28,2.54-.83,3.54c-.55,1-1.26,1.81-2.11,2.47-.86.66-1.81,1.12-2.85,1.42-1.04.3-2.07.44-3.07.44s-2.03-.15-3.07-.44c-1.04-.29-1.99-.77-2.85-1.42-.86-.66-1.57-1.47-2.11-2.47-.55-1-.83-2.18-.83-3.54s.28-2.54.83-3.54c.55-1,1.26-1.81,2.11-2.47s1.81-1.13,2.85-1.47c1.04-.32,2.07-.49,3.07-.49ZM116.06,20.79c-.69,0-1.39.12-2.08.36-.69.24-1.32.57-1.88,1.02-.56.44-1.02.99-1.37,1.64-.35.66-.52,1.39-.52,2.21s.18,1.57.52,2.21c.35.66.8,1.2,1.37,1.64s1.19.79,1.88,1.02c.69.24,1.39.36,2.08.36s1.39-.12,2.08-.36c.69-.24,1.32-.57,1.88-1.02.56-.44,1.02-.99,1.37-1.64.35-.66.52-1.39.52-2.21s-.18-1.57-.52-2.21c-.35-.66-.8-1.2-1.37-1.64s-1.19-.79-1.88-1.02c-.69-.24-1.39-.36-2.08-.36Z"/>
  <path class="st1" d="M137.19,18.24c.88,0,1.67.08,2.38.25.71.18,1.32.44,1.83.8s.91.84,1.17,1.42c.28.59.42,1.3.42,2.15,0,1.3-.36,2.3-1.07,2.99-.71.69-1.67,1.15-2.87,1.39l3.65,5.63c.13.2.28.32.46.36s.33.05.48.05v.53h-5.13v-.53c.16,0,.31-.02.42-.09.12-.05.18-.13.18-.24s-.04-.22-.11-.33c-.07-.13-.19-.29-.33-.52l-3.02-4.62h-3.91v5.26c0,.18.05.31.18.4.12.09.33.13.64.13v.53h-4.75v-.53c.53,0,.79-.18.79-.53v-13.44c0-.36-.27-.53-.79-.53v-.53h9.38l.02.02v-.02ZM136.49,25.16c.66,0,1.2-.05,1.64-.16.44-.11.79-.27,1.04-.46.25-.2.44-.42.55-.69s.16-.56.16-.87-.05-.6-.16-.87c-.11-.27-.29-.49-.55-.69s-.6-.35-1.04-.46c-.44-.11-.99-.16-1.64-.16h-4.75v4.38h4.75v-.02h0Z"/>
  <path class="st1" d="M15.44,37.06v13.05h129.13v-13.05H15.44ZM27.57,46.34c-.36.35-.8.62-1.34.82-.53.2-1.11.33-1.72.4s-1.19.11-1.72.11-1.37-.04-1.87-.11c-.5-.07-.92-.15-1.26-.25-.33-.09-.6-.19-.79-.27-.2-.08-.36-.12-.51-.12s-.18.04-.25.12l-.27-.12,1.07-1.9.2.08c0,.09.02.18.08.25.09.12.27.25.53.37.27.12.57.22.92.32.35.09.71.18,1.08.22.37.05.72.08,1.02.08s.51,0,.86-.04c.35-.02.69-.08,1.03-.16.33-.08.63-.2.88-.35.25-.15.37-.33.37-.57s-.12-.42-.35-.53c-.22-.12-.52-.2-.9-.25-.37-.05-.79-.08-1.27-.11-.48-.02-.96-.04-1.46-.07-.49-.02-.97-.08-1.46-.16-.48-.07-.9-.2-1.27-.37-.37-.17-.67-.42-.9-.71-.22-.29-.35-.69-.35-1.17s.09-.64.28-.96c.19-.31.48-.59.87-.83.39-.24.88-.44,1.48-.59.6-.15,1.3-.22,2.11-.22s1.3.04,1.81.12c.51.08.95.18,1.32.27s.68.19.93.27c.25.08.47.12.64.12s.31-.02.39-.09l.24.12-1.35,1.96-.2-.07c-.02-.15-.08-.27-.16-.36-.11-.12-.28-.25-.52-.37-.24-.12-.52-.22-.86-.32-.32-.09-.68-.18-1.06-.22-.38-.05-.76-.08-1.13-.08s-.59.02-.9.05c-.31.04-.59.09-.83.16-.25.08-.46.18-.62.29-.16.12-.24.27-.24.44s.12.44.35.56c.22.12.52.22.9.28.37.06.79.11,1.27.12.48.02.96.05,1.46.08s.97.08,1.46.16c.48.08.9.2,1.27.37.37.17.67.4.9.69.22.29.35.68.35,1.15s-.18.99-.53,1.34v.05h.02ZM52.09,39.64c-.31,0-.47.09-.47.28v4.64c0,.62-.11,1.12-.33,1.54-.22.4-.55.72-1,.96-.44.24-.99.4-1.66.48-.66.08-1.42.12-2.27.12s-1.61-.04-2.27-.12c-.66-.08-1.2-.24-1.66-.48-.44-.24-.77-.56-1-.96s-.33-.91-.33-1.54v-4.64c0-.19-.19-.28-.55-.28v-.28h3.2v.28c-.28,0-.42.09-.42.28v4.72c0,.66.27,1.11.79,1.37.52.24,1.3.37,2.31.37s1.79-.12,2.31-.37c.52-.24.79-.69.79-1.37v-4.72c0-.19-.2-.28-.59-.28v-.28h3.13v.28h.04ZM74.46,43.7c-.72.37-1.7.56-2.96.56h-3.93v2.79c0,.19.22.28.63.28v.28h-3.58v-.28c.48,0,.72-.09.72-.28v-7.13c0-.19-.24-.28-.72-.28v-.28h6.88c1.26,0,2.23.19,2.96.56.73.38,1.07,1,1.07,1.9s-.36,1.52-1.07,1.9v-.03ZM97.25,43.7c-.72.37-1.7.56-2.96.56h-3.93v2.79c0,.19.22.28.63.28v.28h-3.58v-.28c.48,0,.72-.09.72-.28v-7.13c0-.19-.24-.28-.72-.28v-.28h6.88c1.26,0,2.23.19,2.96.56.72.37,1.07,1,1.07,1.9s-.36,1.52-1.07,1.9v-.03ZM120.29,47.91h-.35c0-.16-.07-.24-.19-.27-.12-.03-.28-.02-.48-.02h-9.3v-.28c.39,0,.59-.09.59-.28v-7.13c0-.19-.2-.28-.59-.28v-.28h3.36v.28c-.36,0-.55.09-.55.28v6.25h6.48c.2,0,.36-.04.48-.11.12-.07.19-.18.19-.29h.35v2.15l.02-.02h0ZM142.16,39.64c-.11,0-.2,0-.29.02-.09.02-.19.05-.28.11s-.2.15-.31.25c-.11.11-.24.25-.4.46l-3.33,3.78v2.79c0,.19.15.28.46.28v.28h-3.09v-.28c.12,0,.22-.02.29-.07.08-.05.12-.12.12-.22v-2.79l-3.77-4.24c-.09-.11-.22-.19-.42-.27-.19-.07-.35-.11-.48-.11v-.28h4.06v.28c-.12,0-.22,0-.33.04-.11.02-.16.09-.16.2s.09.22.28.44c.19.24.42.51.67.8.25.29.52.6.79.92.27.31.49.57.67.8l2.28-2.52c.11-.12.19-.22.25-.29s.09-.15.09-.2-.07-.12-.19-.15c-.12-.02-.24-.02-.35-.02v-.28h3.42v.28-.02h0Z"/>
</svg>