<svg width="36" height="44" viewBox="0 0 36 44" fill="none" xmlns="http://www.w3.org/2000/svg">
<path d="M11.6125 30.84L11.0425 30.51L18.9825 16.76C19.3525 16.12 20.1625 15.9 20.8025 16.27L21.1925 16.5L21.1225 16.63C21.0325 16.79 21.0125 16.98 21.0725 17.15C21.1325 17.32 21.2725 17.46 21.4425 17.52L25.3725 18.92C25.4425 18.94 25.5125 18.96 25.5825 18.96C25.8025 18.96 26.0025 18.85 26.1225 18.65L27.1925 16.8C27.3425 16.54 27.2825 16.21 27.0525 16.02L23.8725 13.32C23.7325 13.2 23.5425 13.15 23.3625 13.18C23.1825 13.21 23.0225 13.32 22.9325 13.48L22.8625 13.61L22.4725 13.38C21.3925 12.76 20.1325 12.59 18.9225 12.92C17.7125 13.24 16.7025 14.02 16.0825 15.09L12.7525 20.86L11.3425 20.05C11.0425 19.88 10.6625 19.98 10.4925 20.28L9.44249 22.1C9.27249 22.4 9.37253 22.78 9.67253 22.95L11.0825 23.76L10.5125 24.74L9.79252 24.32C9.65252 24.24 9.48249 24.22 9.32249 24.26C9.16249 24.3 9.03249 24.41 8.94249 24.55L7.8925 26.37C7.7225 26.67 7.82254 27.05 8.12254 27.22L8.84251 27.64L8.1425 28.86L7.57249 28.53C7.27249 28.36 6.89251 28.46 6.72251 28.76L1.4625 37.87C1.3825 38.01 1.36251 38.18 1.40251 38.34C1.44251 38.5 1.55249 38.63 1.69249 38.72L2.26249 39.05L0.0825 42.8199C-0.0275 43.0099 -0.0275 43.2501 0.0825 43.4401C0.1925 43.6301 0.402539 43.75 0.622539 43.75H3.05253C3.27253 43.75 3.48251 43.6301 3.59251 43.4401L5.16252 40.72L5.73252 41.05C5.83252 41.1101 5.93252 41.13 6.04252 41.13C6.25252 41.13 6.4625 41.0199 6.5825 40.8199L11.8425 31.71C11.9225 31.57 11.9425 31.4 11.9025 31.24C11.8625 31.08 11.7525 30.95 11.6125 30.86V30.84ZM23.6425 14.74L25.8625 16.63L25.3125 17.58L22.5725 16.6L23.6425 14.74ZM10.8425 22.17L11.2725 21.42L12.1425 21.92L11.7125 22.67L10.8425 22.17ZM9.29252 26.45L9.72252 25.7L9.90251 25.81L9.47252 26.56L9.29252 26.45ZM17.1725 15.71C17.6325 14.92 18.3725 14.35 19.2625 14.11C20.1525 13.87 21.0725 13.99 21.8725 14.45L22.2625 14.68L21.8325 15.43L21.4425 15.2C20.2125 14.49 18.6425 14.91 17.9325 16.14L9.99253 29.89L9.24253 29.46L17.1825 15.71H17.1725ZM2.7025 42.48H1.7025L3.34251 39.64L4.09251 40.0699L2.7025 42.48ZM5.81254 39.64L2.86253 37.9401L6.23252 32.1L9.18254 33.8L5.81254 39.64ZM9.81254 32.73L6.86253 31.03L7.51249 29.9L10.4625 31.6L9.81254 32.73ZM34.8625 0H29.0425C28.7025 0 28.4225 0.279995 28.4225 0.619995V12.45C28.4225 12.54 28.4425 12.63 28.4825 12.71L30.1325 16.26L28.4825 19.81C28.4425 19.89 28.4225 19.98 28.4225 20.07V43.1C28.4225 43.44 28.7025 43.72 29.0425 43.72H34.8625C35.2025 43.72 35.4825 43.44 35.4825 43.1V0.619995C35.4825 0.279995 35.2025 0 34.8625 0ZM34.2425 42.48H29.6625V20.21L31.3725 16.52C31.4525 16.35 31.4525 16.16 31.3725 16L29.6625 12.31V1.23999H34.2425V42.48ZM27.7425 6.03998C27.8825 6.34998 27.7425 6.71999 27.4325 6.85999C27.1225 6.99999 26.7525 6.85999 26.6125 6.54999L25.5325 4.15002L25.6925 7.51001C25.7025 7.76001 25.5625 7.99998 25.3325 8.09998C25.1025 8.20998 24.8325 8.15999 24.6525 7.98999L22.5225 5.96002L23.7125 9.28003C23.7825 9.49003 23.7425 9.72001 23.6025 9.89001C23.4625 10.06 23.2425 10.14 23.0225 10.1L21.5125 9.84998L23.6025 11.55C23.8725 11.77 23.9025 12.16 23.6925 12.42C23.5725 12.57 23.3925 12.65 23.2125 12.65C23.0725 12.65 22.9325 12.6 22.8225 12.51L18.9325 9.33002C18.7125 9.15002 18.6425 8.85003 18.7625 8.59003C18.8825 8.33003 19.1525 8.18998 19.4325 8.22998L22.2025 8.69L20.4925 3.91003C20.3925 3.64003 20.4925 3.33999 20.7425 3.17999C20.9925 3.01999 21.3025 3.05 21.5025 3.25L24.4025 6.01001L24.1625 0.950012C24.1525 0.650012 24.3425 0.390007 24.6325 0.320007C24.9225 0.250007 25.2225 0.399983 25.3425 0.669983L27.7625 6.03003L27.7425 6.03998ZM27.7425 25.37L25.3225 30.73C25.2225 30.96 24.9925 31.09 24.7625 31.09C24.7125 31.09 24.6625 31.0899 24.6225 31.0699C24.3325 30.9999 24.1325 30.7401 24.1525 30.4401L24.3925 25.38L21.4925 28.14C21.2825 28.34 20.9725 28.37 20.7325 28.21C20.4925 28.05 20.3925 27.75 20.4825 27.48L22.1925 22.7L19.4225 23.16C19.1425 23.21 18.8725 23.06 18.7525 22.8C18.6325 22.54 18.7125 22.24 18.9225 22.06L22.8125 18.88C23.0825 18.66 23.4725 18.7 23.6825 18.97C23.9025 19.24 23.8625 19.63 23.5925 19.84L21.5025 21.54L23.0125 21.29C23.2325 21.25 23.4525 21.34 23.5925 21.5C23.7325 21.67 23.7725 21.9 23.7025 22.11L22.5125 25.43L24.6425 23.4C24.8225 23.23 25.0925 23.18 25.3225 23.29C25.5525 23.4 25.6925 23.63 25.6825 23.88L25.5225 27.24L26.6025 24.84C26.7425 24.53 27.1125 24.39 27.4225 24.53C27.7325 24.67 27.8725 25.04 27.7325 25.35L27.7425 25.37Z" fill="#C52028"/>
</svg>
