<svg width="133" height="17" viewBox="0 0 133 17" fill="none" xmlns="http://www.w3.org/2000/svg">
<path d="M10.72 0C16.19 0 19.87 3.31002 19.87 8.21002C19.87 13.11 16.19 16.42 10.72 16.42H0V0H10.72ZM5.96 13.04H9.89999C12.06 13.04 13.58 11.09 13.58 8.21002C13.58 5.33002 12.06 3.38 9.89999 3.38H5.96V13.04Z" fill="white"/>
<path d="M37.59 16.42L35.67 12.29H28.16L26.21 16.42H19.71L28.34 0H35.45L44.08 16.42H37.58H37.59ZM29.81 8.75H34.01L31.92 4.27002L29.81 8.75Z" fill="white"/>
<path d="M52.1 6.94L57.45 0H63.92L55.03 11.24V16.42H49.07V11.24L40.18 0H46.65L52 6.94H52.1Z" fill="white"/>
<path d="M103.82 16.42L101.9 12.29H94.39L92.44 16.42H85.94L94.57 0H101.68L110.31 16.42H103.81H103.82ZM96.03 8.75H100.23L98.14 4.27002L96.03 8.75Z" fill="white"/>
<path d="M132.41 16.42H126.15L120.17 7.71997H122.87C124.16 7.71997 125.03 6.94999 125.03 5.79999C125.03 4.64999 124.16 3.81 122.87 3.81H119.33V16.43H113.37V0.0100098H124.63C128.64 0.0100098 131.31 2.19 131.31 5.19C131.31 7.39 129.86 8.89997 127.53 9.40997L132.41 16.42Z" fill="white"/>
<path d="M72.51 13.06H76.43C77.6 13.06 78.38 12.33 78.38 11.27C78.38 10.21 77.6 9.47998 76.43 9.47998H72.51V13.06ZM72.51 6.44H76.13C77.16 6.44 77.87 5.83 77.87 4.94C77.87 4 77.16 3.39001 76.13 3.39001H72.51V6.44ZM84.63 11.82C84.63 14.57 82.52 16.42 79.37 16.42H66.57V0H79.32C82.21 0 84.14 1.59999 84.14 3.98999C84.14 5.48999 82.87 6.97002 80.97 7.58002C83.15 8.03002 84.63 9.69 84.63 11.81" fill="white"/>
</svg>
