<svg width="39" height="44" viewBox="0 0 39 44" fill="none" xmlns="http://www.w3.org/2000/svg">
<path fill-rule="evenodd" clip-rule="evenodd" d="M8.39001 10.3H34.16C34.88 10.3 35.46 10.88 35.46 11.6V12.88C35.46 13.6 34.88 14.1801 34.16 14.1801H8.39001C7.67001 14.1801 7.08997 13.6 7.08997 12.88V11.6C7.08997 10.88 7.67001 10.3 8.39001 10.3ZM4.51996 12.88C4.51996 15.02 6.25001 16.75 8.39001 16.75H34.16C36.3 16.75 38.03 15.02 38.03 12.88V11.6C38.03 9.45998 36.3 7.72998 34.16 7.72998H8.39001C6.25001 7.72998 4.51996 9.45998 4.51996 11.6V12.88ZM10.43 31.8C11.14 31.34 11.61 30.54 11.61 29.63C11.61 28.21 10.46 27.05 9.02997 27.05C7.59997 27.05 6.45001 28.2 6.45001 29.63C6.45001 30.54 6.92 31.34 7.63 31.8L7.09998 36.08H10.97L10.44 31.8H10.43Z" fill="#C52028"/>
<path fill-rule="evenodd" clip-rule="evenodd" d="M15.47 41.24H2.57996V2.57007H15.47V7.72998C15.47 8.43998 16.05 9.02002 16.76 9.02002C17.47 9.02002 18.05 8.43998 18.05 7.72998V1.29004C18.05 0.580039 17.47 0 16.76 0H1.28998C0.579978 0 0 0.580039 0 1.29004V42.54C0 43.25 0.579978 43.83 1.28998 43.83H16.76C17.47 43.83 18.05 43.25 18.05 42.54V16.76C18.05 16.05 17.47 15.47 16.76 15.47C16.05 15.47 15.47 16.05 15.47 16.76V41.25V41.24Z" fill="#C52028"/>
</svg>
