<svg width="1439" height="956" viewBox="0 0 1439 956" fill="none" xmlns="http://www.w3.org/2000/svg">
<g opacity="0.4">
<path d="M1080.36 955.21H1121.13V82.45L964.64 155.34L963.86 955.21H1000.88V171.81L1080.36 137.22V955.21Z" fill="#D0D2D3"/>
<path d="M830.28 955.21L830.79 435.53L881.86 432.24L881.94 955.21H905.28L905.19 403.38L812.47 408.46L811.95 955.21H830.28Z" fill="#D0D2D3"/>
<path d="M1168.24 955.21V56.79L1253.42 93.24V955.21H1281.11V68.7L1133.89 0V955.21H1168.24Z" fill="#D0D2D3"/>
<path d="M1369.09 955.21V274.81L1421.32 287.08V955.21H1438.5V264.3L1345.96 236.26V955.21H1369.09Z" fill="#D0D2D3"/>
<path d="M794.38 954.91H0V254.91H677.98L794.38 215.87V954.91Z" fill="#D0D2D3"/>
</g>
</svg>
