<svg width="78" height="45" viewBox="0 0 78 45" fill="none" xmlns="http://www.w3.org/2000/svg">
<path d="M0 25.3V27.87C0 28.55 0.459996 28.47 0.589996 28.47H76.48V31.04H77.08V28.48C77.08 28.48 77.18 27.88 76.47 27.88H0.600006V25.31H0V25.3Z" fill="white"/>
<path d="M71.83 34.65L69.66 38.33L67.47 34.65H65.15L68.59 40.35V44H70.65V40.4L74.12 34.65H71.83ZM62.01 42.48C60.16 42.48 59.47 40.91 59.47 39.35C59.47 37.71 60.16 36.14 62.01 36.14C63.86 36.14 64.55 37.71 64.55 39.34C64.55 40.9 63.86 42.47 62.01 42.48ZM62 34.42C59.11 34.42 57.4 36.58 57.41 39.36C57.41 40.45 57.69 41.45 58.22 42.26H54.74V34.66H52.68V44.01H58.65V42.82C59.44 43.69 60.58 44.22 62.02 44.22C64.91 44.22 66.61 42.06 66.61 39.36C66.61 36.59 64.9 34.42 62.01 34.43M48.8 42.4H46.6V39.83H48.84C49.72 39.83 50.32 40.21 50.32 41.17C50.32 42.14 49.61 42.4 48.8 42.4ZM46.59 36.2401H48.51C49.24 36.2401 49.92 36.42 49.93 37.32C49.93 38.11 49.39 38.44 48.67 38.43H46.59V36.2401ZM38.99 40.38L40.21 36.95H40.24L41.42 40.38H38.99ZM50.65 38.91C51.46 38.52 51.92 37.87 51.92 36.96C51.92 35.22 50.71 34.64 48.93 34.65H44.53V43.31L41.29 34.65H39.18L35.63 44H37.71L38.44 41.92H41.94L42.65 44H49.06C50.75 44 52.36 43.18 52.36 41.28C52.36 40.11 51.78 39.24 50.64 38.91M28.26 40.38L29.48 36.95H29.5L30.68 40.38H28.25H28.26ZM22.15 42.62C21.05 42.62 20.08 42.14 20.08 40.9H18.72C18.52 39.06 16.61 38.66 15.96 38.5C13.62 37.9 13.17 37.81 13.17 37.09C13.17 36.3 13.93 36.03 14.58 36.03C15.56 36.03 16.36 36.31 16.43 37.44H18.41C18.51 39.05 19.85 39.56 21.19 39.91C22.57 40.28 23.97 40.45 23.97 41.46C23.97 42.41 22.87 42.62 22.15 42.63M6.26001 40.38L7.48001 36.95H7.51001L8.69 40.38H6.26001ZM28.46 34.64L25.97 41.21C25.97 39.09 23.88 38.6601 23.19 38.4901C20.85 37.8801 20.4 37.8 20.4 37.08C20.4 36.29 21.16 36.02 21.81 36.02C22.79 36.02 23.59 36.31 23.66 37.43H25.65C25.65 35.27 23.85 34.42 21.9 34.42C20.23 34.42 18.45 35.31 18.41 37.18C18.27 35.21 16.55 34.43 14.67 34.43C12.99 34.43 11.18 35.35 11.18 37.26C11.18 39.02 12.58 39.55 13.97 39.92C15.35 40.29 16.75 40.46 16.74 41.46C16.74 42.41 15.64 42.62 14.92 42.63C13.82 42.63 12.85 42.15 12.85 40.9H10.88L8.54001 34.65H6.43002L2.89001 44H4.97L5.70001 41.92H9.20001L9.91 44H12.04L11.71 43.13C12.47 43.88 13.62 44.23 14.83 44.22C16.7 44.22 17.93 43.52 18.44 42.47C19.1 43.67 20.54 44.22 22.06 44.22C23.53 44.22 24.6 43.79 25.24 43.09L24.9 44H26.98L27.71 41.91H31.21L31.92 44H34.06L30.56 34.65H28.45L28.46 34.64Z" fill="white"/>
<path d="M3.18002 0H14.25V5.39001H8.64999V21.54H3.14001L3.18002 0Z" fill="white"/>
<path d="M9.42001 6.16003H13.61V12.91H9.42001" fill="white"/>
<path d="M17.85 13.15V0H24.81V1.92999H20.31V5.26001H24.53V7.19H20.31V13.15H17.85Z" fill="white"/>
<path d="M28.92 0H26.64V13.15H28.92V0Z" fill="white"/>
<path d="M35.68 6.92999V6.07001C35.66 5.07001 35.4 4.76001 34.49 4.76001C33.35 4.76001 33.4 5.64003 33.4 6.53003V6.92999H35.68ZM31.12 6.66003C31.01 4.33003 32.21 3 34.45 3C37.62 3 37.96 4.65004 37.96 7.35004V8.67999H33.4V10.12C33.42 11.42 33.91 11.66 34.59 11.66C35.43 11.66 35.68 11.05 35.64 9.80005H37.92C38.01 12.01 37.1 13.41 34.76 13.41C32.13 13.41 31.06 12.16 31.11 9.25V6.65002L31.12 6.66003Z" fill="white"/>
<path d="M42.42 4.28H42.46C42.97 3.19 43.9 3.02997 44.63 2.99997C45.47 2.97997 46.59 3.35 46.75 4.28C47.21 3.42 47.93 2.99997 49.05 2.99997C50.73 2.99997 51.47 4.05001 51.47 5.10001V13.15H49.19V6.47C49.19 5.58 49.1 4.69997 48.1 4.74997C47.12 4.79997 46.94 5.48999 46.94 6.63999V13.14H44.66V6.34C44.66 5.46 44.59 4.73002 43.54 4.74002C42.47 4.76002 42.42 5.54998 42.42 6.62998V13.13H40.14V3.24002H42.42V4.28Z" fill="white"/>
<path d="M53.92 3.26001H56.2V13.15H53.92V3.26001ZM53.92 0H56.2V2.07001H53.92V0Z" fill="white"/>
<path d="M60.84 4.28003H60.88C61.39 3.14003 62.4 3 62.93 3C64.23 3 65.28 3.75003 65.21 5.53003V13.16H62.93V6.57001C62.93 5.60001 62.82 4.97 61.96 4.94C61.1 4.9 60.8 5.71001 60.84 6.76001V13.16H58.56V3.27002H60.84V4.29004V4.28003Z" fill="white"/>
<path d="M70.5 4.74998C69.43 4.74998 69.53 5.68002 69.47 6.66002V9.96C69.52 10.91 69.77 11.66 70.47 11.66C71.21 11.66 71.57 11.05 71.57 9.91002V6.94999C71.61 6.15999 71.57 4.75999 70.5 4.75999M69.57 14.25C69.57 14.46 69.68 14.6 69.83 14.69C70 14.8 70.25 14.83 70.53 14.83C71.5 14.83 71.67 14.06 71.67 13.29V12.15L71.63 12.11C71.17 13.06 70.53 13.36 69.54 13.41C67.61 13.41 67.23 11.68 67.17 10.1V6.52C67.22 3.8 68.06 3.02998 69.54 2.99998C70.57 2.97998 71.21 3.38001 71.52 4.28001H71.56V3.25999H73.84V12.85C73.84 14.87 73.28 16.48 70.16 16.48C68.65 16.48 67.41 15.92 67.29 14.25H69.57Z" fill="white"/>
<path d="M18.6 21.18H19.75C20.22 21.18 21.5 21.05 21.5 19.13C21.5 17.89 21.04 17.14 19.77 17.14H18.61V21.18H18.6ZM17.9 16.56H19.68C21.28 16.56 22.18 17.36 22.18 19.04C22.18 20.72 21.41 21.76 19.68 21.76H17.9V16.56Z" fill="white"/>
<path d="M24.59 21.3C25.24 21.3 25.76 20.79 25.76 19.88C25.76 18.97 25.24 18.45 24.59 18.45C23.94 18.45 23.42 18.96 23.42 19.88C23.42 20.8 23.94 21.3 24.59 21.3ZM24.59 17.91C25.78 17.91 26.42 18.78 26.42 19.88C26.42 20.98 25.79 21.85 24.59 21.85C23.39 21.85 22.76 20.98 22.76 19.88C22.76 18.77 23.39 17.91 24.59 17.91Z" fill="white"/>
<path d="M28.81 21.3C29.46 21.3 29.98 20.79 29.98 19.88C29.98 18.97 29.46 18.45 28.81 18.45C28.16 18.45 27.64 18.96 27.64 19.88C27.64 20.8 28.16 21.3 28.81 21.3ZM28.81 17.91C30 17.91 30.64 18.78 30.64 19.88C30.64 20.98 30.01 21.85 28.81 21.85C27.61 21.85 26.98 20.98 26.98 19.88C26.98 18.77 27.61 17.91 28.81 17.91Z" fill="white"/>
<path d="M31.38 17.99H31.96V18.78H31.97C32.27 18.17 32.68 17.88 33.36 17.9V18.56C32.36 18.56 32 19.13 32 20.08V21.76H31.38V17.99Z" fill="white"/>
<path d="M36.72 19.05H38.08C38.86 19.05 39.22 18.72 39.22 18.1C39.22 17.48 38.86 17.15 38.08 17.15H36.72V19.06V19.05ZM36.03 16.56H38.31C39.34 16.56 39.91 17.14 39.91 18.1C39.91 19.06 39.35 19.65 38.31 19.64H36.72V21.77H36.03V16.56Z" fill="white"/>
<path d="M41.25 17.99V18.78H41.26C41.56 18.17 41.97 17.88 42.64 17.9V18.56C41.64 18.56 41.28 19.13 41.28 20.08V21.76H40.66V17.99H41.25Z" fill="white"/>
<path d="M44.65 21.3C45.3 21.3 45.82 20.79 45.82 19.88C45.82 18.97 45.3 18.45 44.65 18.45C44 18.45 43.48 18.96 43.48 19.88C43.48 20.8 44 21.3 44.65 21.3ZM44.65 17.91C45.84 17.91 46.48 18.78 46.48 19.88C46.48 20.98 45.85 21.85 44.65 21.85C43.45 21.85 42.82 20.98 42.82 19.88C42.82 18.78 43.45 17.91 44.65 17.91Z" fill="white"/>
<path d="M48.86 21.3C49.69 21.3 50.01 20.59 50.01 19.88C50.01 19.14 49.68 18.45 48.82 18.45C47.96 18.45 47.69 19.17 47.69 19.91C47.69 20.65 48.05 21.3 48.85 21.3M49.98 21.76V21.25H49.97C49.77 21.67 49.29 21.85 48.77 21.85C47.61 21.85 47.04 20.93 47.04 19.87C47.04 18.81 47.61 17.91 48.76 17.91C49.15 17.91 49.7 18.06 49.98 18.5H49.99V16.56H50.61V21.76H49.98Z" fill="white"/>
<path d="M54.72 21.76H54.14V21.16H54.13C53.87 21.63 53.45 21.84 52.91 21.84C51.92 21.84 51.61 21.27 51.61 20.46V17.98H52.23V20.53C52.23 20.99 52.52 21.29 53 21.29C53.75 21.29 54.11 20.79 54.11 20.11V17.98H54.73V21.75L54.72 21.76Z" fill="white"/>
<path d="M58.24 19.2C58.15 18.73 57.82 18.45 57.31 18.45C56.41 18.45 56.14 19.16 56.14 19.92C56.14 20.61 56.45 21.3 57.24 21.3C57.84 21.3 58.19 20.95 58.28 20.38H58.91C58.77 21.3 58.2 21.84 57.25 21.84C56.1 21.84 55.49 21.04 55.49 19.92C55.49 18.8 56.07 17.9 57.27 17.9C58.12 17.9 58.81 18.3 58.89 19.2H58.24Z" fill="white"/>
<path d="M60.49 17.9901H61.24V18.54H60.49V20.88C60.49 21.16 60.57 21.21 60.96 21.21H61.24V21.76H60.77C60.13 21.76 59.87 21.63 59.87 20.94V18.54H59.23V17.9901H59.87V16.86H60.49V17.9901Z" fill="white"/>
<path d="M62.34 20.57C62.36 21.12 62.84 21.3 63.35 21.3C63.74 21.3 64.26 21.2101 64.26 20.7401C64.26 20.2701 63.65 20.18 63.03 20.04C62.42 19.9 61.8 19.7 61.8 18.98C61.8 18.22 62.55 17.91 63.21 17.91C64.04 17.91 64.7 18.17 64.76 19.09H64.14C64.1 18.61 63.67 18.46 63.27 18.46C62.9 18.46 62.47 18.56 62.47 18.94C62.47 19.38 63.13 19.46 63.7 19.6C64.32 19.74 64.93 19.94 64.93 20.67C64.93 21.57 64.09 21.86 63.33 21.86C62.49 21.86 61.77 21.52 61.73 20.58H62.35L62.34 20.57Z" fill="white"/>
</svg>
