<svg width="72" height="45" viewBox="0 0 72 45" fill="none" xmlns="http://www.w3.org/2000/svg">
<path d="M0 26.74V29.11C0 29.74 0.419988 29.66 0.549988 29.66H70.63V32.03H71.18V29.67C71.18 29.67 71.28 29.11 70.62 29.11H0.549988V26.74H0Z" fill="white"/>
<path d="M66.33 35.37L64.33 38.77L62.31 35.37H60.17L63.35 40.63V44H65.25V40.67L68.46 35.36H66.34L66.33 35.37ZM57.26 42.61C55.55 42.61 54.91 41.16 54.91 39.72C54.91 38.21 55.55 36.76 57.25 36.76C58.96 36.76 59.59 38.21 59.6 39.72C59.6 41.16 58.96 42.61 57.26 42.61ZM57.26 35.15C54.59 35.15 53.01 37.14 53.02 39.71C53.02 40.72 53.28 41.64 53.76 42.39H50.54V35.37H48.64V44.01H54.15V42.92C54.88 43.72 55.93 44.21 57.26 44.21C59.93 44.21 61.5 42.21 61.5 39.72C61.5 37.23 59.93 35.16 57.26 35.16M45.06 42.52H43.03V40.15H45.1C45.91 40.15 46.47 40.5 46.47 41.38C46.47 42.26 45.81 42.52 45.07 42.52M43.03 36.84H44.81C45.49 36.84 46.12 37.01 46.12 37.83C46.12 38.56 45.62 38.86 44.96 38.86H43.03V36.84ZM36.01 40.67L37.14 37.5H37.16L38.25 40.67H36.01ZM46.78 39.31C47.53 38.95 47.95 38.35 47.96 37.51C47.96 35.9 46.84 35.37 45.2 35.38H41.14V43.37L38.15 35.38H36.2L32.92 44.02H34.85L35.53 42.1H38.76L39.41 44.02H45.33C46.89 44.02 48.38 43.27 48.38 41.51C48.38 40.43 47.85 39.63 46.79 39.32M26.1 40.66L27.23 37.49H27.25L28.34 40.66H26.1ZM20.46 42.73C19.45 42.73 18.55 42.28 18.55 41.14H17.29C17.1 39.44 15.34 39.08 14.74 38.93C12.58 38.37 12.16 38.29 12.16 37.63C12.16 36.9 12.86 36.65 13.47 36.65C14.38 36.65 15.11 36.91 15.18 37.95H17.01C17.1 39.43 18.34 39.91 19.58 40.23C20.85 40.57 22.15 40.72 22.15 41.66C22.15 42.54 21.14 42.74 20.47 42.74M5.77997 40.67L6.90997 37.5H6.92999L8.01996 40.67H5.77997ZM26.29 35.37L23.99 41.44C23.99 39.48 22.06 39.08 21.43 38.93C19.27 38.37 18.85 38.29 18.85 37.62C18.85 36.89 19.55 36.64 20.16 36.64C21.07 36.64 21.8 36.91 21.87 37.94H23.71C23.71 35.94 22.05 35.16 20.25 35.16C18.71 35.16 17.07 35.99 17.02 37.7C16.89 35.88 15.3 35.16 13.57 35.16C12.02 35.16 10.35 36.01 10.35 37.77C10.35 39.39 11.64 39.88 12.93 40.22C14.2 40.56 15.49 40.72 15.49 41.64C15.49 42.56 14.48 42.72 13.81 42.72C12.79 42.72 11.9 42.27 11.9 41.12H10.09L7.92999 35.35H5.98999L2.71997 43.99H4.63995L5.32001 42.07H8.54999L9.20001 43.99H11.17L10.87 43.18C11.57 43.87 12.64 44.19 13.75 44.19C15.48 44.19 16.61 43.55 17.08 42.57C17.69 43.68 19.02 44.19 20.42 44.19C21.78 44.19 22.76 43.79 23.35 43.15L23.03 43.99H24.95L25.63 42.06H28.86L29.52 43.99H31.49L28.26 35.35H26.31L26.29 35.37Z" fill="white"/>
<path d="M21.05 13.8C21.05 12.23 21.99 11.3 23.32 11.3C24.65 11.3 25.48 12.2 25.48 13.77V19.5H27.79V13.08C27.79 10.73 26.47 9.20001 24.2 9.20001C22.63 9.20001 21.7 10.02 21.05 10.98V5.54999H18.74V19.5H21.05V13.8Z" fill="white"/>
<path d="M48.35 17.85C47.32 17.85 46.13 17.43 45.05 16.61L44.02 18.18C45.28 19.17 46.87 19.69 48.3 19.69C50.4 19.69 52.04 18.64 52.04 16.52V16.48C52.04 14.67 50.38 14 48.91 13.54C47.73 13.16 46.64 12.85 46.64 12.13V12.09C46.64 11.5 47.16 11.08 48.05 11.08C48.89 11.08 49.92 11.44 50.9 12.04L51.82 10.4C50.75 9.70002 49.37 9.25 48.12 9.25C46.12 9.25 44.53 10.42 44.53 12.32V12.36C44.53 14.29 46.19 14.9 47.68 15.32C48.86 15.68 49.93 15.95 49.93 16.73V16.77C49.93 17.44 49.36 17.86 48.36 17.86L48.35 17.85Z" fill="white"/>
<path d="M41.66 19.49C42.13 19.49 42.51 19.11 42.51 18.64C42.51 18.17 42.14 17.79 41.66 17.79C41.18 17.79 40.81 18.17 40.81 18.64C40.81 19.11 41.19 19.49 41.66 19.49Z" fill="white"/>
<path d="M29.53 19.49C30 19.49 30.38 19.11 30.38 18.64C30.38 18.17 30.01 17.79 29.53 17.79C29.05 17.79 28.68 18.17 28.68 18.64C28.68 19.11 29.06 19.49 29.53 19.49Z" fill="white"/>
<path d="M36.1 19.8C37.82 19.8 39.23 19.15 40.29 17.88L40.34 17.82L38.86 16.51L38.8 16.56C37.96 17.38 37.18 17.93 36.13 17.93C34.62 17.93 32.91 16.5 32.86 14.58C32.84 13.49 33.21 12.48 33.89 11.79C34.43 11.24 35.12 10.94 35.82 10.94C37.69 10.94 38.56 12.41 38.74 13.71H35.61C34.77 13.81 34.14 14.48 34.14 15.28V15.37H40.71V15.25C40.74 15.04 40.76 14.84 40.76 14.64C40.76 11.91 39.25 9.15 35.88 9.13H35.85C34.53 9.13 33.29 9.65003 32.34 10.59C31.37 11.56 30.83 12.85 30.83 14.22V14.51C30.83 17.59 33.04 19.83 36.09 19.83H36.1V19.8Z" fill="white"/>
<path d="M11.12 0V25.27H59.64V0H11.12ZM57.49 23.13H13.26V2.14001H57.49V23.13Z" fill="white"/>
<path d="M61.35 25.04C60.78 25.04 60.37 24.62 60.37 24.05C60.37 23.48 60.78 23.06 61.36 23.06C61.94 23.06 62.32 23.47 62.32 24.04C62.32 24.61 61.92 25.04 61.35 25.04ZM61.36 23.2C60.87 23.2 60.55 23.56 60.55 24.05C60.55 24.54 60.87 24.9 61.35 24.9C61.83 24.9 62.15 24.53 62.15 24.04C62.15 23.55 61.85 23.2 61.36 23.2ZM61.58 24.66L61.28 24.15H61.21V24.66H60.95V23.41C60.95 23.41 61.05 23.4 61.24 23.4C61.35 23.4 61.48 23.4 61.57 23.44C61.65 23.46 61.81 23.54 61.81 23.76C61.81 24.08 61.53 24.12 61.53 24.12L61.89 24.67H61.57L61.58 24.66ZM61.28 23.55H61.2V24.01C61.2 24.01 61.21 24.01 61.27 24.01C61.32 24.01 61.35 24.01 61.38 24C61.44 23.99 61.53 23.93 61.53 23.77C61.53 23.58 61.41 23.54 61.28 23.54V23.55Z" fill="white"/>
</svg>
