<svg xmlns="http://www.w3.org/2000/svg" viewBox="0 0 100 100" fill="none">
  <svg x="61.280" y="57.840" width="37.870" height="29.160" viewBox="0 0 18.9367 14.582" preserveAspectRatio="none" overflow="visible"><path id="Vector" d="M18.5883 0.351562C18.1195 -0.117188 17.357 -0.117188 16.8883 0.351562L6.19766 11.0422C6.00703 11.2328 5.70078 11.2328 5.51016 11.0422L2.04453 7.57656C1.57265 7.11094 0.810156 7.11719 0.344531 7.58906C-0.114844 8.05781 -0.114844 8.80781 0.344531 9.27344L5.51016 14.4391C5.70078 14.6297 6.00703 14.6297 6.19766 14.4391L18.5852 2.04844C19.0539 1.57969 19.0539 0.817189 18.5852 0.348439L18.5883 0.351562Z" fill="var(--fill-0, #C52028)"/></svg>
  <svg x="51.490" y="53.990" width="45.300" height="45.300" viewBox="0 0 22.65 22.65" preserveAspectRatio="none" overflow="visible"><path id="Vector" d="M21.4469 10.125C20.7844 10.125 20.2469 10.6625 20.2469 11.325C20.2469 16.2531 16.2531 20.2469 11.325 20.2469C6.39688 20.2469 2.40313 16.2531 2.40313 11.325C2.40313 6.39689 6.39688 2.40314 11.325 2.40314C12.7125 2.40002 14.0844 2.72189 15.325 3.34689C15.9188 3.64377 16.6406 3.40627 16.9375 2.81252C17.2344 2.21877 16.9969 1.49689 16.4031 1.20002C14.8281 0.406269 13.0875 -0.00310724 11.325 1.77572e-05C5.07188 1.77572e-05 0 5.06877 0 11.325C0 17.5813 5.06875 22.65 11.325 22.65C17.5813 22.65 22.65 17.5813 22.65 11.325C22.65 10.6625 22.1125 10.125 21.45 10.125H21.4469Z" fill="var(--fill-0, #C52028)"/></svg>
  <svg x="0.840" y="0.700" width="83.420" height="83.430" viewBox="0 0 41.7125 41.7156" preserveAspectRatio="none" overflow="visible"><path id="Vector" d="M39.1406 19.4375H37.1188C36.425 19.4375 35.8594 20 35.8594 20.6969C35.8594 21.3937 36.4219 21.9562 37.1188 21.9562H40.4063C41.1281 21.9281 41.7 21.3437 41.7125 20.6219C41.5813 9.19687 32.2844 0.003125 20.8563 0C9.35625 0 0 9.35625 0 20.8594C0 32.3625 9.35625 41.7156 20.8563 41.7156C21.4094 41.7156 21.9 41.3531 22.0594 40.8219C22.0969 40.7156 22.1156 40.6 22.1125 40.4875V36.9562C22.1063 36.2625 21.5375 35.7031 20.8438 35.7094C20.1563 35.7156 19.6031 36.2719 19.5969 36.9562V39.1531C10.4313 38.5281 3.09375 31.1406 2.55 21.9531H4.59375C5.2875 21.9531 5.85312 21.3906 5.85312 20.6937C5.85312 19.9969 5.29063 19.4344 4.59375 19.4344H2.57187C3.26875 10.3969 10.5406 3.175 19.6 2.55938V4.43125C19.6062 5.125 20.175 5.68438 20.8688 5.67813C21.5563 5.67188 22.1094 5.11563 22.1156 4.43125V2.55938C31.1375 3.18125 38.4406 10.4156 39.1406 19.4344V19.4375Z" fill="var(--fill-0, #C52028)"/></svg>
  <svg x="21.740" y="25.340" width="23.330" height="30.140" viewBox="0 0 11.6655 15.0718" preserveAspectRatio="none" overflow="visible"><path id="Vector" d="M10.4062 0C9.71242 0 9.1468 0.5625 9.1468 1.25937V7.8125L0.637421 12.7187C0.0342959 13.0625 -0.178204 13.8313 0.162421 14.4344C0.506171 15.0375 1.27492 15.25 1.87805 14.9094C1.8843 14.9094 1.88742 14.9031 1.89367 14.9L11.0343 9.63125C11.0562 9.61875 11.078 9.60625 11.0968 9.59375C11.4499 9.3625 11.6655 8.96562 11.6655 8.54375V1.2625C11.6655 0.56875 11.103 0.00312448 10.4062 0.00312448V0Z" fill="var(--fill-0, #C52028)"/></svg>
</svg>
