<svg xmlns="http://www.w3.org/2000/svg" viewBox="0 0 100 100" fill="none">
  <svg x="14.760" y="0.700" width="74.700" height="98.600" viewBox="0 0 37.3469 49.3" preserveAspectRatio="none" overflow="visible"><g id="Group">
<path id="Vector" fill-rule="evenodd" clip-rule="evenodd" d="M0.3625 43.6031C0.415625 46.4844 2.55 49.0188 5.41875 49.275C5.59375 49.2906 5.76875 49.3 5.94375 49.3H31.4031C34.6719 49.3 37.3469 46.625 37.3469 43.3563V12.4406C37.3469 12.2375 37.2656 12.05 37.125 11.9094L25.4406 0.221875C25.3 0.08125 25.1094 0 24.9094 0H5.94375C2.675 0 0 2.675 0 5.94375V24.3687L0.359375 43.6031H0.3625ZM8.975 42.6813C8.5625 42.6813 8.22812 42.3469 8.22812 41.9344C8.22812 41.5219 8.5625 41.1875 8.975 41.1875H28.375C28.7875 41.1875 29.1219 41.5219 29.1219 41.9344C29.1219 42.3469 28.7875 42.6813 28.375 42.6813H8.975ZM1.74687 43.4688C1.775 45.6219 3.3375 47.5531 5.47813 47.7813C5.63125 47.7969 5.7875 47.8063 5.94375 47.8063H31.4031C33.85 47.8063 35.8531 45.8031 35.8531 43.3563V13.1875H24.9094C24.4969 13.1875 24.1625 12.8531 24.1625 12.4406V1.49687H5.94375C3.49687 1.49687 1.49375 3.5 1.49375 5.94687V25.025L1.74375 43.4719L1.74687 43.4688ZM25.6562 2.55L34.7969 11.6906H25.6562V2.55ZM8.975 36.2969C8.5625 36.2969 8.22812 35.9625 8.22812 35.55C8.22812 35.1375 8.5625 34.8031 8.975 34.8031H28.375C28.7875 34.8031 29.1219 35.1375 29.1219 35.55C29.1219 35.9625 28.7875 36.2969 28.375 36.2969H8.975Z" fill="var(--fill-0, #C52028)"/>
<path id="Vector_2" d="M8.59688 19.6969C8.48438 19.55 8.4125 19.375 8.3875 19.1719C8.3625 18.9688 8.38438 18.7781 8.45 18.5969C8.51563 18.4187 8.62187 18.2687 8.76562 18.1469C8.90937 18.025 9.09062 17.9625 9.30312 17.9625C9.46562 17.9625 9.62813 18.0188 9.79063 18.1344C9.95313 18.25 10.1312 18.3875 10.3281 18.55C10.5219 18.7125 10.7437 18.8875 10.9875 19.075C11.2312 19.2625 11.5094 19.4375 11.8187 19.6L12.2594 19.8188L12.2844 15.2562C11.975 15.1094 11.5937 14.9313 11.1375 14.7188C10.6812 14.5063 10.25 14.2438 9.84375 13.925C9.4375 13.6063 9.0875 13.2344 8.79375 12.8031C8.5 12.3719 8.35312 11.8812 8.35312 11.3281C8.35312 10.8875 8.44062 10.4625 8.62187 10.0469C8.8 9.63125 9.05625 9.25312 9.39062 8.9125C9.725 8.57187 10.1344 8.2875 10.6219 8.05937C11.1094 7.83125 11.6625 7.67813 12.2812 7.59375V6.76563C12.2812 6.2125 12.3375 5.72813 12.4531 5.3125C12.5688 4.89688 12.8531 4.69062 13.3062 4.69062C13.7594 4.69062 14.0219 4.88125 14.1375 5.26562C14.25 5.64687 14.3094 6.1 14.3094 6.62187C14.3094 6.8 14.3063 6.97188 14.2969 7.13438C14.2875 7.29688 14.2844 7.46875 14.2844 7.64688C14.4969 7.67813 14.7938 7.75313 15.175 7.86563C15.5563 7.97813 15.9406 8.12187 16.3219 8.29375C16.7031 8.46562 17.0344 8.66875 17.3094 8.90313C17.5844 9.14063 17.725 9.40313 17.725 9.69688C17.725 9.94063 17.6375 10.1563 17.4563 10.3438C17.2781 10.5313 17.0406 10.625 16.75 10.625C16.5531 10.625 16.3438 10.5844 16.1156 10.5031C15.8875 10.4219 15.6594 10.3312 15.4344 10.2344C15.2063 10.1375 14.9906 10.0406 14.7875 9.94063C14.5844 9.84375 14.4187 9.76875 14.2875 9.72187C14.2719 10.4375 14.2656 11.1469 14.275 11.8438C14.2844 12.5438 14.2781 13.2594 14.2625 13.9906C14.7813 14.1875 15.3031 14.3906 15.825 14.6C16.3469 14.8125 16.8188 15.0719 17.2406 15.3812C17.6625 15.6906 18.0094 16.0563 18.2781 16.4781C18.5469 16.9031 18.6813 17.4062 18.6813 17.9906C18.6813 18.675 18.5469 19.2531 18.2781 19.7219C18.0094 20.1906 17.6656 20.5875 17.2406 20.9062C16.8156 21.225 16.3406 21.4719 15.8125 21.65C15.2844 21.8281 14.7594 21.9656 14.2375 22.0656V22.9062C14.2375 23.1906 14.2469 23.4813 14.2625 23.7719C14.1813 24.0813 14.0469 24.3094 13.8594 24.4531C13.6719 24.6 13.4719 24.6719 13.2625 24.6719C12.9687 24.6719 12.7531 24.5875 12.6156 24.4156C12.4781 24.2438 12.3844 24.0281 12.3344 23.7688C12.2844 23.5094 12.2625 23.2156 12.2625 22.8906C12.2625 22.5656 12.2531 22.2563 12.2375 21.9625L12.2125 21.9375C11.7063 21.8063 11.2719 21.6687 10.9063 21.5219C10.5406 21.375 10.2219 21.2094 9.95313 21.0219C9.68438 20.8344 9.44375 20.6313 9.23437 20.4125C9.02187 20.1938 8.8125 19.9531 8.6 19.6938L8.59688 19.6969ZM12.2812 9.69063C12.1344 9.74063 11.9719 9.7875 11.7938 9.8375C11.6156 9.8875 11.4406 9.95937 11.2688 10.0562C11.0969 10.1531 10.9406 10.275 10.7938 10.4219C10.6469 10.5688 10.5344 10.7563 10.4531 10.9844C10.4531 11.4563 10.6375 11.875 11.0031 12.2406C11.3688 12.6063 11.7969 12.9125 12.2844 13.1563V9.69063H12.2812ZM14.2594 16.0625C14.2594 16.7281 14.2531 17.3875 14.2469 18.0375C14.2375 18.6875 14.2344 19.3375 14.2344 19.9906C14.5125 19.9594 14.7875 19.8875 15.0656 19.7812C15.3438 19.675 15.6687 19.5156 16.0406 19.3063C16.3344 19.0625 16.5125 18.7781 16.5781 18.4531C16.6437 18.1281 16.5625 17.8031 16.3344 17.4781C16.0094 17.2031 15.6969 16.9531 15.3937 16.7344C15.0937 16.5156 14.7156 16.2906 14.2594 16.0625Z" fill="var(--fill-0, #C52028)"/>
</g></svg>
  <svg x="31.220" y="58.330" width="41.790" height="2.990" viewBox="0 0 20.8937 1.49375" preserveAspectRatio="none" overflow="visible"><path id="Vector" fill-rule="evenodd" clip-rule="evenodd" d="M0.746875 1.49375C0.334375 1.49375 0 1.15937 0 0.746875C0 0.334375 0.334375 0 0.746875 0H20.1469C20.5594 0 20.8938 0.334375 20.8938 0.746875C20.8938 1.15937 20.5594 1.49375 20.1469 1.49375H0.746875Z" fill="var(--fill-0, #C52028)"/></svg>
</svg>
