<svg xmlns="http://www.w3.org/2000/svg" viewBox="0 0 100 100" fill="none">
  <svg x="0.000" y="0.000" width="100.000" height="100.000" viewBox="0 0 50 50" preserveAspectRatio="none" overflow="visible"><path id="Vector" fill-rule="evenodd" clip-rule="evenodd" d="M38.1712 28.1648C37.9271 27.8257 38 27.3534 38.3391 27.1093C38.6783 26.8653 39.1506 26.9382 39.3946 27.2773L40.7544 29.1474L43.8954 25.7718C44.1807 25.4675 44.6593 25.4485 44.9635 25.7338C45.2678 26.019 45.2868 26.4976 45.0016 26.8019L41.2552 30.8241C40.9319 31.1854 40.3613 31.1822 40.0666 30.7765L38.168 28.1616L38.1712 28.1648ZM0 29.4738V41.5436C0 41.8764 0.212361 42.1553 0.510301 42.2599L10.6276 46.691C10.8082 46.767 11.0048 46.7765 11.1886 46.7068L12.523 46.1236C13.4105 48.4247 15.6355 50 18.149 50H43.9715C47.2868 50 50 47.29 50 43.9715V12.6181C50 12.412 49.9176 12.2219 49.775 12.0792L37.9239 0.22504C37.7813 0.0824089 37.588 0 37.3851 0H18.149C14.8336 0 12.1204 2.70998 12.1204 6.02853V24.7163L11.2298 24.3265C11.0428 24.2472 10.8273 24.2377 10.6276 24.3265L0.510301 28.7575C0.215531 28.859 0 29.141 0 29.4738ZM1.51506 30.6307L10.1712 34.4216V44.8431L1.51506 41.0523V30.6307ZM11.6862 34.4216L20.3423 30.6307V41.0523L11.6862 44.8431V34.4216ZM17.084 24.3645C16.8748 24.7258 16.412 24.8494 16.0507 24.6403C15.6894 24.4311 15.5658 23.9683 15.775 23.607L19.8288 16.5832C19.9683 16.3423 20.2219 16.206 20.4818 16.206H26.691C27.2488 14.5737 29.3376 14.0729 30.5705 15.3059C32.0444 16.7797 30.9952 19.309 28.9128 19.309C27.8954 19.309 27.0111 18.6561 26.691 17.7211H20.916L17.0808 24.3645H17.084ZM29.5024 16.374C29.8257 16.6973 29.8257 17.2235 29.5024 17.5468C28.9794 18.0697 28.0856 17.6989 28.0856 16.9604C28.0856 16.2219 28.9826 15.851 29.5024 16.374ZM22.9065 29.0713C22.4881 29.0713 22.149 28.7322 22.149 28.3138C22.149 27.8954 22.4881 27.5563 22.9065 27.5563H35.8574C36.2758 27.5563 36.6149 27.8954 36.6149 28.3138C36.6149 28.7322 36.2758 29.0713 35.8574 29.0713H22.9065ZM22.9065 42.0222C22.4881 42.0222 22.149 41.683 22.149 41.2647C22.149 40.8463 22.4881 40.5071 22.9065 40.5071H35.8574C36.2758 40.5071 36.6149 40.8463 36.6149 41.2647C36.6149 41.683 36.2758 42.0222 35.8574 42.0222H22.9065ZM38.1712 34.6403C37.9271 34.3011 38 33.8288 38.3391 33.5848C38.6783 33.3407 39.1506 33.4136 39.3946 33.7528L40.7544 35.6228L43.8954 32.2472C44.1807 31.9429 44.6593 31.9239 44.9635 32.2092C45.2678 32.4945 45.2868 32.9731 45.0016 33.2773L41.2552 37.2995C40.9319 37.6609 40.3613 37.6577 40.0666 37.252L38.168 34.6371L38.1712 34.6403ZM38.1712 41.1157C37.9271 40.7765 38 40.3043 38.3391 40.0602C38.6783 39.8162 39.1506 39.8891 39.3946 40.2282L40.7544 42.0983L43.8954 38.7227C44.1807 38.4184 44.6593 38.3994 44.9635 38.6846C45.2678 38.9699 45.2868 39.4485 45.0016 39.7528L41.2552 43.775C40.9319 44.1363 40.3613 44.1331 40.0666 43.7274L38.168 41.1125L38.1712 41.1157ZM18.0697 5.19176H32.7639C33.1822 5.19176 33.5214 5.5309 33.5214 5.94929V10.8051C33.5214 11.2235 33.1822 11.5626 32.7639 11.5626H18.0697C17.6513 11.5626 17.3122 11.2235 17.3122 10.8051V5.94929C17.3122 5.5309 17.6513 5.19176 18.0697 5.19176ZM32.0063 6.70681V10.0475H18.8273V6.70681H32.0063ZM48.4881 13.3756H37.3883C36.9699 13.3756 36.6307 13.0365 36.6307 12.6181V1.51823H18.1521C15.6704 1.51823 13.6387 3.54992 13.6387 6.0317V25.3819L21.3502 28.7607C21.6482 28.8621 21.8605 29.1442 21.8605 29.477V41.5468C21.8605 41.8796 21.6482 42.1585 21.3502 42.2631L13.9144 45.5214C14.5578 47.2773 16.2409 48.4881 18.1553 48.4881H43.9778C46.4596 48.4881 48.4913 46.4564 48.4913 43.9746V13.3756H48.4881ZM38.1426 2.58637L47.4136 11.8574H38.1426V2.58637ZM33.0555 18.7956C32.6371 18.7956 32.2979 18.4564 32.2979 18.038C32.2979 17.6197 32.6371 17.2805 33.0555 17.2805H45.0745C45.4929 17.2805 45.832 17.6197 45.832 18.038C45.832 18.4564 45.4929 18.7956 45.0745 18.7956H33.0555ZM33.0555 23.2171C32.6371 23.2171 32.2979 22.878 32.2979 22.4596C32.2979 22.0412 32.6371 21.7021 33.0555 21.7021H45.0745C45.4929 21.7021 45.832 22.0412 45.832 22.4596C45.832 22.878 45.4929 23.2171 45.0745 23.2171H33.0555ZM19.2171 29.4738L10.9287 33.1062L2.64025 29.4738L10.9287 25.8415L19.2171 29.4738ZM22.9065 35.5467C22.4881 35.5467 22.149 35.2076 22.149 34.7892C22.149 34.3708 22.4881 34.0317 22.9065 34.0317H35.8574C36.2758 34.0317 36.6149 34.3708 36.6149 34.7892C36.6149 35.2076 36.2758 35.5467 35.8574 35.5467H22.9065Z" fill="var(--fill-0, #C52028)"/></svg>
</svg>
