<svg xmlns="http://www.w3.org/2000/svg" viewBox="0 0 100 100" fill="none">
  <svg x="0.190" y="5.510" width="99.620" height="88.990" viewBox="0 0 49.8094 44.4969" preserveAspectRatio="none" overflow="visible"><path id="Vector" d="M43.6 32.7125V36.8625C43.6 38.9125 41.9344 40.5781 39.8844 40.5781H36.1812L37.3344 41.7313C37.6469 42.0438 37.6469 42.5531 37.3344 42.8688C37.1781 43.025 36.9719 43.1031 36.7656 43.1031C36.5594 43.1031 36.3531 43.025 36.1969 42.8688L33.6719 40.3438C33.6531 40.325 33.6344 40.3063 33.6188 40.2844C33.6125 40.275 33.6063 40.2656 33.6 40.2594C33.5906 40.2469 33.5813 40.2344 33.5719 40.2219C33.5656 40.2125 33.5594 40.2 33.5531 40.1875C33.5469 40.175 33.5406 40.1656 33.5313 40.1531C33.525 40.1406 33.5187 40.1313 33.5156 40.1188C33.5094 40.1063 33.5031 40.0938 33.5 40.0813C33.4969 40.0688 33.4906 40.0594 33.4875 40.0469C33.4813 40.0344 33.4781 40.0219 33.475 40.0063C33.4719 39.9938 33.4688 39.9844 33.4656 39.9719C33.4625 39.9594 33.4594 39.9437 33.4563 39.9312C33.4563 39.9187 33.4531 39.9063 33.45 39.8906C33.45 39.8781 33.4469 39.8656 33.4438 39.8531C33.4438 39.8312 33.4406 39.8062 33.4406 39.7844C33.4406 39.7844 33.4406 39.7781 33.4406 39.775C33.4406 39.7719 33.4406 39.7687 33.4406 39.7656C33.4406 39.7437 33.4406 39.7187 33.4438 39.6969C33.4438 39.6844 33.4469 39.6719 33.45 39.6594C33.45 39.6469 33.4531 39.6344 33.4563 39.6187C33.4563 39.6031 33.4625 39.5906 33.4656 39.5781C33.4656 39.5656 33.4719 39.5563 33.475 39.5438C33.4781 39.5313 33.4844 39.5156 33.4875 39.5031C33.4906 39.4906 33.4969 39.4813 33.5 39.4688C33.5063 39.4563 33.5125 39.4438 33.5156 39.4313C33.5219 39.4188 33.525 39.4094 33.5313 39.3969C33.5375 39.3844 33.5438 39.375 33.5531 39.3625C33.5594 39.35 33.5656 39.3406 33.5719 39.3281C33.5813 39.3156 33.5906 39.3031 33.6 39.2906C33.6063 39.2812 33.6125 39.2719 33.6188 39.2656C33.6344 39.2438 33.6531 39.225 33.6719 39.2063L36.1969 36.6813C36.5094 36.3688 37.0188 36.3688 37.3344 36.6813C37.65 36.9938 37.6469 37.5031 37.3344 37.8188L36.1812 38.9719H39.8844C41.0469 38.9719 41.9938 38.025 41.9938 36.8625V32.7125C41.9938 32.2688 42.3531 31.9094 42.7969 31.9094C43.2406 31.9094 43.6 32.2688 43.6 32.7125ZM15.0219 38.9687H9.92188C8.75938 38.9687 7.8125 38.0219 7.8125 36.8594V34.65L8.96563 35.8031C9.27813 36.1156 9.7875 36.1156 10.1031 35.8031C10.4187 35.4906 10.4156 34.9813 10.1031 34.6656L7.57812 32.1406C7.55938 32.1219 7.54063 32.1031 7.51875 32.0875C7.50938 32.0813 7.5 32.075 7.49063 32.0656C7.47813 32.0563 7.46875 32.0469 7.45625 32.0406C7.44375 32.0344 7.43437 32.0281 7.42188 32.0187C7.40938 32.0125 7.4 32.0063 7.39062 32C7.37812 31.9938 7.36563 31.9875 7.35313 31.9813C7.34063 31.975 7.33125 31.9688 7.31875 31.9656C7.30625 31.9594 7.29375 31.9562 7.28438 31.9531C7.27188 31.95 7.25938 31.9437 7.24688 31.9406C7.23438 31.9375 7.22187 31.9344 7.2125 31.9313C7.2 31.9281 7.18438 31.925 7.17188 31.9219C7.15938 31.9219 7.14375 31.9188 7.13125 31.9156C7.11875 31.9156 7.10625 31.9125 7.09375 31.9094C7.06875 31.9094 7.04688 31.9063 7.02188 31.9063H7.01563C7.0125 31.9063 7.00938 31.9063 7.00625 31.9063C6.98438 31.9063 6.95938 31.9063 6.9375 31.9094C6.925 31.9094 6.9125 31.9125 6.89687 31.9156C6.88437 31.9156 6.87188 31.9188 6.85938 31.9219C6.84375 31.9219 6.83125 31.9281 6.81563 31.9313C6.80313 31.9313 6.79375 31.9375 6.78438 31.9406C6.76875 31.9437 6.75625 31.95 6.74375 31.9563C6.73437 31.9594 6.72188 31.9625 6.7125 31.9688C6.7 31.975 6.6875 31.9813 6.675 31.9875C6.6625 31.9938 6.65312 31.9969 6.64062 32.0031C6.62813 32.0094 6.61563 32.0156 6.60313 32.025C6.59375 32.0313 6.58125 32.0375 6.57188 32.0438C6.55938 32.0531 6.54687 32.0625 6.53437 32.0719C6.525 32.0781 6.51875 32.0844 6.50937 32.0906C6.4875 32.1063 6.46875 32.125 6.45 32.1438L3.925 34.6688C3.6125 34.9813 3.6125 35.4906 3.925 35.8063C4.08125 35.9625 4.2875 36.0406 4.49375 36.0406C4.7 36.0406 4.90625 35.9625 5.0625 35.8063L6.21563 34.6531V36.8625C6.21563 38.9125 7.88125 40.5781 9.93125 40.5781H15.0312C15.475 40.5781 15.8344 40.2187 15.8344 39.775C15.8344 39.3312 15.475 38.9719 15.0312 38.9719L15.0219 38.9687ZM34.2438 5.525H39.8844C41.0469 5.525 41.9938 6.47188 41.9938 7.63438V12.0969L40.8406 10.9438C40.5281 10.6313 40.0188 10.6313 39.7031 10.9438C39.3875 11.2563 39.3906 11.7656 39.7031 12.0812L42.2281 14.6062C42.3781 14.7562 42.5844 14.8406 42.7969 14.8406C43.0094 14.8406 43.2156 14.7562 43.3656 14.6062L45.8906 12.0812C46.2031 11.7687 46.2031 11.2594 45.8906 10.9438C45.5781 10.6313 45.0688 10.6313 44.7531 10.9438L43.6 12.0969V7.63438C43.6 5.58438 41.9344 3.91875 39.8844 3.91875H34.2438C33.8 3.91875 33.4406 4.27812 33.4406 4.72187C33.4406 5.16562 33.8 5.525 34.2438 5.525ZM49.8094 23.1C49.8094 26.9656 46.6656 30.1125 42.7969 30.1125C38.9281 30.1125 35.7844 26.9688 35.7844 23.1C35.7844 19.2313 38.9281 16.0875 42.7969 16.0875C46.6656 16.0875 49.8094 19.2313 49.8094 23.1ZM48.2031 23.1C48.2031 20.1188 45.7781 17.6969 42.8 17.6969C39.8219 17.6969 37.3969 20.1219 37.3969 23.1C37.3969 26.0781 39.8219 28.5031 42.8 28.5031C45.7781 28.5031 48.2031 26.0781 48.2031 23.1ZM32.4969 43.2906C32.6406 43.5406 32.6406 43.8469 32.4969 44.0938C32.3531 44.3406 32.0875 44.4969 31.8 44.4969H17.4625C17.175 44.4969 16.9094 44.3438 16.7656 44.0938C16.6219 43.8438 16.6219 43.5375 16.7656 43.2906L23.9344 30.875C24.0781 30.625 24.3437 30.4719 24.6312 30.4719C24.9187 30.4719 25.1844 30.625 25.3281 30.875L32.4969 43.2906ZM30.4094 42.8875L24.6312 32.8813L18.8531 42.8875H30.4063H30.4094ZM19.4562 9.55V0.803125C19.4562 0.359375 19.8156 0 20.2594 0H29.0062C29.45 0 29.8094 0.359375 29.8094 0.803125V9.55C29.8094 9.99375 29.45 10.3531 29.0062 10.3531H20.2594C19.8156 10.3531 19.4562 9.99375 19.4562 9.55ZM21.0625 8.74375H28.2031V1.60625H21.0625V8.74687V8.74375ZM6.44063 29.7844L0.234375 23.575C-0.078125 23.2625 -0.078125 22.7531 0.234375 22.4375L6.44375 16.2281C6.59375 16.0781 6.8 15.9938 7.0125 15.9938C7.225 15.9938 7.43125 16.0781 7.58125 16.2281L13.7875 22.4375C14.1 22.75 14.1 23.2594 13.7875 23.575L7.58125 29.7844C7.43125 29.9344 7.225 30.0188 7.0125 30.0188C6.8 30.0188 6.59375 29.9344 6.44375 29.7844H6.44063ZM1.9375 23.0063L7.00938 28.0781L12.0812 23.0063L7.00938 17.9344L1.9375 23.0063ZM17.925 26.9969C17.925 24.1125 19.675 21.6281 22.1656 20.55C21.25 19.7656 20.6687 18.6 20.6687 17.3031C20.6687 14.9437 22.5875 13.025 24.9469 13.025C27.3063 13.025 29.225 14.9437 29.225 17.3031C29.225 18.6 28.6438 19.7656 27.7281 20.55C30.2219 21.6281 31.9688 24.1125 31.9688 26.9969C31.9688 27.4406 31.6094 27.8 31.1656 27.8H18.725C18.2812 27.8 17.9219 27.4406 17.9219 26.9969H17.925ZM24.9469 19.975H24.9531C26.425 19.975 27.6219 18.775 27.6219 17.3031C27.6219 15.8312 26.4219 14.6312 24.95 14.6312C23.4781 14.6312 22.2781 15.8312 22.2781 17.3031C22.2781 18.775 23.475 19.975 24.9469 19.975ZM19.5937 26.1937H30.3094C29.9188 23.5875 27.6688 21.5813 24.9563 21.5813H24.95C22.2375 21.5813 19.9844 23.5875 19.5969 26.1937H19.5937ZM15.8187 4.64375C15.8187 4.64375 15.8156 4.61875 15.8125 4.60625C15.8125 4.59375 15.8094 4.58125 15.8062 4.56562C15.8062 4.55 15.8 4.5375 15.7969 4.525C15.7969 4.5125 15.7906 4.50312 15.7875 4.49062C15.7844 4.47812 15.7781 4.4625 15.775 4.45C15.7719 4.4375 15.7656 4.42813 15.7625 4.41563C15.7562 4.40313 15.75 4.39062 15.7469 4.37812C15.7406 4.36562 15.7375 4.35625 15.7313 4.34375C15.725 4.33125 15.7188 4.32187 15.7094 4.30937C15.7031 4.29687 15.6969 4.2875 15.6906 4.275C15.6812 4.2625 15.6719 4.25 15.6625 4.2375C15.6562 4.22813 15.65 4.21875 15.6437 4.2125C15.6281 4.19063 15.6094 4.17187 15.5906 4.15312L13.0656 1.62813C12.7531 1.31563 12.2437 1.31563 11.9281 1.62813C11.6125 1.94063 11.6156 2.45 11.9281 2.76562L13.0812 3.91875H9.92188C7.87188 3.91875 6.20625 5.58438 6.20625 7.63438V13.4875C6.20625 13.9312 6.56563 14.2906 7.00938 14.2906C7.45313 14.2906 7.8125 13.9312 7.8125 13.4875V7.63438C7.8125 6.47188 8.75938 5.525 9.92188 5.525H13.0812L11.9281 6.67812C11.6156 6.99062 11.6156 7.5 11.9281 7.81562C12.0844 7.97187 12.2906 8.05 12.4969 8.05C12.7031 8.05 12.9094 7.97187 13.0656 7.81562L15.5906 5.29063C15.6094 5.27188 15.6281 5.25312 15.6437 5.23125C15.65 5.22187 15.6562 5.2125 15.6625 5.20625C15.6719 5.19375 15.6812 5.18125 15.6906 5.16875C15.6969 5.15938 15.7031 5.14688 15.7094 5.13438C15.7156 5.12188 15.7219 5.1125 15.7313 5.1C15.7375 5.0875 15.7437 5.07812 15.7469 5.06562C15.7531 5.05312 15.7594 5.04063 15.7625 5.02813C15.7656 5.01563 15.7719 5.00625 15.775 4.99375C15.7812 4.98125 15.7844 4.96875 15.7875 4.95312C15.7906 4.94062 15.7937 4.93125 15.7969 4.91875C15.8 4.90625 15.8031 4.89062 15.8062 4.87812C15.8062 4.86562 15.8094 4.85313 15.8125 4.8375C15.8125 4.825 15.8156 4.8125 15.8187 4.8C15.8187 4.77812 15.8219 4.75313 15.8219 4.73125C15.8219 4.73125 15.8219 4.725 15.8219 4.72187C15.8219 4.71875 15.8219 4.71562 15.8219 4.7125C15.8219 4.69062 15.8219 4.66562 15.8187 4.64375Z" fill="var(--fill-0, #C52028)"/></svg>
</svg>
