<svg width="44" height="43" viewBox="0 0 44 43" fill="none" xmlns="http://www.w3.org/2000/svg">
<path d="M39.02 18.3H35.23C34.76 18.3 34.38 18.68 34.38 19.15C34.38 19.62 34.76 20 35.23 20H39.02C39.49 20 39.87 19.62 39.87 19.15C39.87 18.68 39.49 18.3 39.02 18.3Z" fill="#C52028"/>
<path d="M39.02 21.75H35.23C34.76 21.75 34.38 22.13 34.38 22.6C34.38 23.07 34.76 23.4501 35.23 23.4501H39.02C39.49 23.4501 39.87 23.07 39.87 22.6C39.87 22.13 39.49 21.75 39.02 21.75Z" fill="#C52028"/>
<path d="M35.23 35.46H39.02C39.49 35.46 39.87 35.08 39.87 34.61C39.87 34.14 39.49 33.76 39.02 33.76H35.23C34.76 33.76 34.38 34.14 34.38 34.61C34.38 35.08 34.76 35.46 35.23 35.46Z" fill="#C52028"/>
<path d="M35.23 38.91H39.02C39.49 38.91 39.87 38.5301 39.87 38.0601C39.87 37.5901 39.49 37.21 39.02 37.21H35.23C34.76 37.21 34.38 37.5901 34.38 38.0601C34.38 38.5301 34.76 38.91 35.23 38.91Z" fill="#C52028"/>
<path d="M8.15003 4.43005V8.65002L6.21997 10.5801C5.88997 10.9101 5.88997 11.45 6.21997 11.78C6.38997 11.95 6.60001 12.03 6.82001 12.03C7.04001 12.03 7.24999 11.95 7.41999 11.78L9.59998 9.59998C9.75998 9.43998 9.84998 9.22 9.84998 9V4.43005C9.84998 3.96005 9.47 3.58008 9 3.58008C8.53 3.58008 8.15003 3.96005 8.15003 4.43005Z" fill="#C52028"/>
<path d="M9 18C12.44 18 15.52 16.09 17.06 13.01C17.27 12.59 17.1 12.08 16.68 11.87C16.26 11.66 15.75 11.83 15.54 12.25C14.29 14.75 11.79 16.3 9 16.3C4.97 16.3 1.70001 13.02 1.70001 9C1.70001 4.98 4.98 1.70007 9 1.70007C11.79 1.70007 14.29 3.24999 15.54 5.73999C15.75 6.15999 16.26 6.33 16.68 6.12C17.1 5.91 17.27 5.39998 17.06 4.97998C15.52 1.90998 12.44 0 9 0C4.04 0 0 4.04 0 9C0 13.96 4.04 18 9 18Z" fill="#C52028"/>
<path d="M41.11 14.92H32.96C31.66 14.92 30.6 15.98 30.6 17.28V20.17H26.28V10.38C26.28 9.15 25.28 8.15002 24.05 8.15002H20.71C20.24 8.15002 19.86 8.53 19.86 9C19.86 9.47 20.24 9.84998 20.71 9.84998H24.05C24.34 9.84998 24.58 10.09 24.58 10.38V34.9401C24.58 36.1701 25.58 37.17 26.81 37.17H30.59V40.0601C30.59 41.3601 31.65 42.42 32.95 42.42H41.1C42.4 42.42 43.46 41.3601 43.46 40.0601V32.5701C43.46 31.2701 42.4 30.21 41.1 30.21H32.95C31.65 30.21 30.59 31.2701 30.59 32.5701V35.46H26.81C26.52 35.46 26.28 35.2201 26.28 34.9301V21.86H30.6V24.75C30.6 26.05 31.66 27.11 32.96 27.11H41.11C42.41 27.11 43.47 26.05 43.47 24.75V17.26C43.47 15.96 42.41 14.9 41.11 14.9V14.92ZM32.3 32.59C32.3 32.22 32.6 31.9301 32.96 31.9301H41.11C41.48 31.9301 41.77 32.23 41.77 32.59V40.0801C41.77 40.4501 41.47 40.74 41.11 40.74H32.96C32.59 40.74 32.3 40.4401 32.3 40.0801V32.59ZM41.78 24.77C41.78 25.14 41.48 25.4301 41.12 25.4301H32.97C32.6 25.4301 32.31 25.13 32.31 24.77V17.28C32.31 16.91 32.61 16.62 32.97 16.62H41.12C41.49 16.62 41.78 16.92 41.78 17.28V24.77Z" fill="#C52028"/>
<path d="M17.44 24.97H9.84998V20.27C9.84998 19.8 9.47 19.42 9 19.42C8.53 19.42 8.15002 19.8 8.15002 20.27V24.97H4.92999C3.62999 24.97 2.57001 26.0301 2.57001 27.3301V34.8201C2.57001 36.1201 3.62999 37.1801 4.92999 37.1801H17.44C18.74 37.1801 19.8 36.1201 19.8 34.8201V27.3301C19.8 26.0301 18.74 24.97 17.44 24.97ZM18.1 34.8201C18.1 35.1901 17.8 35.48 17.44 35.48H4.92999C4.55999 35.48 4.27002 35.1801 4.27002 34.8201V27.3301C4.27002 26.9601 4.56999 26.67 4.92999 26.67H17.44C17.81 26.67 18.1 26.9701 18.1 27.3301V34.8201Z" fill="#C52028"/>
<path d="M15.35 28.5H7.19C6.72 28.5 6.34003 28.88 6.34003 29.35C6.34003 29.82 6.72 30.2001 7.19 30.2001H15.35C15.82 30.2001 16.2 29.82 16.2 29.35C16.2 28.88 15.82 28.5 15.35 28.5Z" fill="#C52028"/>
<path d="M15.35 31.9501H7.19C6.72 31.9501 6.34003 32.33 6.34003 32.8C6.34003 33.27 6.72 33.65 7.19 33.65H15.35C15.82 33.65 16.2 33.27 16.2 32.8C16.2 32.33 15.82 31.9501 15.35 31.9501Z" fill="#C52028"/>
</svg>
