<svg width="50" height="44" viewBox="0 0 50 44" fill="none" xmlns="http://www.w3.org/2000/svg">
<path d="M8.92001 39.7H6.37003C5.40003 36.06 0.05 36.73 0 40.51C0.05 44.29 5.40003 44.96 6.37003 41.32H8.92001C10.26 41.32 11.35 40.23 11.35 38.89V22.68H17.84C18.29 22.68 18.65 22.32 18.65 21.87C18.65 21.42 18.29 21.06 17.84 21.06H11.35V4.84999C11.35 3.50999 10.26 2.42 8.92001 2.42H6.37003C5.41003 -1.2 0.05 -0.570006 0 3.22999C0.06 7.02999 5.40003 7.65999 6.37003 4.03999H8.92001C9.37001 4.03999 9.73001 4.39999 9.73001 4.84999V21.06H6.37003C6.01003 19.67 4.75002 18.63 3.24002 18.63C-1.03998 18.76 -1.04998 24.98 3.24002 25.11C4.75002 25.11 6.00003 24.07 6.37003 22.68H9.73001V38.89C9.73001 39.34 9.37001 39.7 8.92001 39.7ZM3.25003 42.13C1.11003 42.07 1.11003 38.94 3.25003 38.89C5.39003 38.95 5.39003 42.08 3.25003 42.13ZM3.25003 4.84999C1.11003 4.78999 1.11003 1.66 3.25003 1.61C5.39003 1.67 5.39003 4.79999 3.25003 4.84999ZM3.25003 23.49C1.11003 23.43 1.11003 20.3 3.25003 20.25C5.39003 20.31 5.39003 23.44 3.25003 23.49Z" fill="#C52028"/>
<path d="M49.0799 0.0100098H22.3099C21.9599 0.0100098 21.6699 0.300024 21.6699 0.650024V29.2599C21.6699 29.6099 21.9599 29.9 22.3099 29.9C22.6599 29.9 22.9499 29.6099 22.9499 29.2599V1.28998H48.4299V43.72H46.9799V33.7599C46.9799 33.41 46.6899 33.1201 46.3399 33.1201C45.9899 33.1201 45.6999 33.41 45.6999 33.7599V42.43H25.6799V4.01001H45.6999V35.09C45.6999 35.44 45.9899 35.73 46.3399 35.73C46.6899 35.73 46.9799 35.44 46.9799 35.09V3.37C46.9799 3.02 46.6899 2.72998 46.3399 2.72998H25.0399C24.6899 2.72998 24.3999 3.02 24.3999 3.37L24.4199 43.71H22.9699L22.9499 27.92C22.9499 27.57 22.6599 27.28 22.3099 27.28C21.9599 27.28 21.6699 27.57 21.6699 27.92V43.07C21.6699 43.42 21.9599 43.71 22.3099 43.71H49.0799C49.4299 43.71 49.7199 43.42 49.7199 43.07V0.640015C49.7199 0.290015 49.4299 0 49.0799 0V0.0100098Z" fill="#C52028"/>
<path d="M28.61 10.42C28.26 10.42 27.97 10.71 27.97 11.06V21.1C27.97 21.45 28.26 21.74 28.61 21.74H42.78C43.13 21.74 43.42 21.45 43.42 21.1V6.85999C43.42 6.50999 43.13 6.21997 42.78 6.21997H28.61C28.26 6.21997 27.97 6.50999 27.97 6.85999V12.39C27.97 12.74 28.26 13.03 28.61 13.03C28.96 13.03 29.25 12.74 29.25 12.39V7.5H42.14V20.45H29.25V11.05C29.25 10.7 28.96 10.41 28.61 10.41V10.42Z" fill="#C52028"/>
<path d="M27.97 39.61C27.97 39.96 28.26 40.2499 28.61 40.2499H42.78C43.13 40.2499 43.42 39.96 43.42 39.61V25.37C43.42 25.02 43.13 24.73 42.78 24.73H28.61C28.26 24.73 27.97 25.02 27.97 25.37V39.61ZM29.2599 26.01H42.15V38.96H29.2599V26.01Z" fill="#C52028"/>
<path d="M45.12 23.24C45.12 22.57 44.58 22.03 43.91 22.03C43.48 22.03 43.0999 22.26 42.8799 22.6H41.35C41 22.6 40.71 22.89 40.71 23.24C40.71 23.59 41 23.88 41.35 23.88H42.8799C43.0899 24.22 43.47 24.45 43.91 24.45C44.58 24.45 45.12 23.91 45.12 23.24Z" fill="#C52028"/>
</svg>
