<svg width="44" height="44" viewBox="0 0 44 44" fill="none" xmlns="http://www.w3.org/2000/svg">
<path d="M12.02 32.12L14.96 35.06C15.31 35.36 15.84 35.3201 16.15 34.9701C16.42 34.6601 16.42 34.19 16.15 33.88L14.65 32.37H19.35C19.81 32.37 20.19 31.99 20.19 31.53C20.19 31.07 19.81 30.69 19.35 30.69H14.65L16.15 29.18C16.45 28.83 16.41 28.3 16.06 27.99C15.75 27.72 15.28 27.72 14.97 27.99L12.03 30.93C11.7 31.26 11.7 31.79 12.03 32.12H12.02Z" fill="#C52028"/>
<path d="M21.86 18.57C23.87 18.57 25.8 17.7799 27.21 16.3499C27.54 16.0199 27.54 15.49 27.21 15.16C26.88 14.83 26.35 14.83 26.02 15.16C23.72 17.46 20 17.46 17.7 15.16C17.37 14.83 16.84 14.83 16.51 15.16C16.18 15.49 16.18 16.0199 16.51 16.3499C17.93 17.7699 19.85 18.57 21.86 18.57Z" fill="#C52028"/>
<path d="M21.86 15.21C22.97 15.21 24.04 14.7699 24.83 13.9799C25.16 13.6499 25.16 13.12 24.83 12.79C24.5 12.46 23.97 12.46 23.64 12.79C22.66 13.77 21.06 13.77 20.08 12.79C19.75 12.46 19.22 12.46 18.89 12.79C18.56 13.12 18.56 13.6499 18.89 13.9799C19.68 14.7699 20.75 15.21 21.86 15.21Z" fill="#C52028"/>
<path d="M21.86 21.9301C24.76 21.9301 27.54 20.79 29.59 18.74C29.93 18.43 29.96 17.9001 29.65 17.5501C29.34 17.2101 28.81 17.18 28.46 17.49C28.44 17.51 28.42 17.5301 28.4 17.5501C24.79 21.1601 18.93 21.1601 15.32 17.5501C14.98 17.2401 14.44 17.26 14.13 17.61C13.84 17.93 13.84 18.42 14.13 18.74C16.18 20.79 18.96 21.9401 21.86 21.9301Z" fill="#C52028"/>
<path d="M42.88 43.7201C43.34 43.7201 43.72 43.34 43.72 42.88V0.840088C43.72 0.380088 43.34 0 42.88 0H0.840027C0.380027 0 0 0.380088 0 0.840088V42.88C0 43.34 0.380027 43.7201 0.840027 43.7201H42.88ZM17.66 6.72998C17.66 9.04998 19.54 10.9301 21.86 10.9301C24.18 10.9301 26.06 9.04998 26.06 6.72998H33.63V42.04H10.09V6.72998H17.66ZM19.34 6.72998H24.38C24.38 8.11998 23.25 9.25 21.86 9.25C20.47 9.25 19.34 8.11998 19.34 6.72998ZM42.04 42.04H35.31V6.72998H42.04V42.04ZM42.04 1.68005V5.04004H1.67999V1.68005H42.04ZM1.67999 42.04V6.72998H8.40997V42.04H1.67999Z" fill="#C52028"/>
<path d="M27.57 27.9999C27.24 28.3299 27.24 28.86 27.57 29.19L29.07 30.7H24.37C23.91 30.7 23.53 31.08 23.53 31.54C23.53 32 23.91 32.3799 24.37 32.3799H29.07L27.57 33.89C27.27 34.24 27.31 34.77 27.66 35.08C27.97 35.35 28.44 35.35 28.75 35.08L31.69 32.14C32.02 31.81 32.02 31.28 31.69 30.95L28.75 28.01C28.42 27.68 27.89 27.68 27.56 28.01L27.57 27.9999Z" fill="#C52028"/>
</svg>
