<svg width="114" height="23" viewBox="0 0 114 23" fill="none" xmlns="http://www.w3.org/2000/svg">
<path d="M111.32 20.57V20.94H111.57C111.82 20.94 112.07 21 112.07 20.75C112.07 20.56 111.88 20.56 111.7 20.56H111.33L111.32 20.57ZM112.26 21.94H112.01L111.64 21.19H111.33V21.94H111.08V20.39H111.76C112.07 20.39 112.32 20.45 112.32 20.83C112.32 21.14 112.13 21.27 111.88 21.27L112.25 21.95L112.26 21.94ZM110.45 21.13C110.45 21.81 111.01 22.31 111.63 22.31C112.25 22.31 112.81 21.81 112.81 21.13C112.81 20.45 112.25 19.95 111.63 19.95C111.01 19.95 110.45 20.51 110.45 21.13ZM110.2 21.13C110.2 20.38 110.82 19.76 111.63 19.76C112.44 19.76 113.06 20.38 113.06 21.13C113.06 21.88 112.44 22.5 111.63 22.5C110.82 22.5 110.2 21.94 110.2 21.13Z" fill="white"/>
<path d="M10 14.61H10.07L14.79 0.0599976H19.45L23.87 14.61H23.93L28.16 0.0599976H34.25L27.04 22.56H21.07L17.15 9.51001H17.09L12.68 22.56H6.71002L0 0.0599976H6.09003L10 14.61Z" fill="white"/>
<path d="M42.02 5.03003V8.76001H48.61V13.74H42.02V17.59H48.98V22.56H36.1699V0.0599976H48.98V5.03003H42.02Z" fill="white"/>
<path d="M56.75 0.0599976H50.9099V22.56H56.75V0.0599976Z" fill="white"/>
<path d="M71.4199 6.09003C70.4299 5.22003 69.12 4.66003 67.75 4.66003C66.76 4.66003 65.3899 5.28002 65.3899 6.46002C65.3899 7.70002 66.8799 8.20001 67.8799 8.51001L69.3099 8.95001C72.2899 9.82001 74.59 11.31 74.59 14.79C74.59 16.9 74.09 19.08 72.35 20.57C70.67 22 68.4299 22.56 66.2599 22.56C63.5899 22.56 60.91 21.63 58.74 20.14L61.1 15.66C62.47 16.9 64.1499 17.84 66.0099 17.84C67.3199 17.84 68.6799 17.22 68.6799 15.66C68.6799 14.1 66.4999 13.55 65.3199 13.24C61.8399 12.25 59.5399 11.38 59.5399 7.21002C59.5399 3.04002 62.6499 0 66.9399 0C69.1199 0 71.7299 0.67999 73.6499 1.73999L71.4099 6.09003H71.4199Z" fill="white"/>
<path d="M82.2899 5.03003V8.76001H88.8799V13.74H82.2899V17.59H89.2599V22.56H76.45V0.0599976H89.2599V5.03003H82.2899Z" fill="white"/>
<path d="M97.0299 10.13H97.59C99.52 10.13 101.63 9.76002 101.63 7.33002C101.63 4.90002 99.45 4.53003 97.59 4.53003H97.0299V10.12V10.13ZM109.89 22.56H102.62L97.09 13.92H97.0299V22.56H91.1899V0.0599976H99.95C104.43 0.0599976 107.78 2.17002 107.78 6.96002C107.78 10.07 106.04 12.74 102.87 13.3L109.89 22.56Z" fill="white"/>
</svg>
